<svg width="24" height="24" viewBox="0 0 24 24" fill="none" xmlns="http://www.w3.org/2000/svg">
<g clip-path="url(#clip0)">
<path d="M22.8937 22.8442H21.8656V8.16095C21.8656 7.47751 21.3003 6.92151 20.6055 6.92151H18.3075C17.6127 6.92151 17.0474 7.47755 17.0474 8.16095V22.8442H14.4368V14.8136C14.4368 14.1302 13.8716 13.5742 13.1767 13.5742H10.8787C10.1839 13.5742 9.61865 14.1302 9.61865 14.8136V22.8442H7.00809V18.6852C7.00809 18.0018 6.44278 17.4458 5.748 17.4458H3.44995C2.75512 17.4458 2.18985 18.0018 2.18985 18.6852V22.8442H1.10629C0.847402 22.8442 0.637543 23.0506 0.637543 23.3053C0.637543 23.5599 0.847402 23.7664 1.10629 23.7664H22.8937C23.1526 23.7664 23.3624 23.5599 23.3624 23.3053C23.3624 23.0506 23.1526 22.8442 22.8937 22.8442ZM6.07049 22.8442H3.12731V18.6852C3.12731 18.5103 3.27201 18.3679 3.4499 18.3679H5.7479C5.92579 18.3679 6.07049 18.5103 6.07049 18.6852V22.8442ZM13.4993 22.8442H10.5561V14.8136C10.5561 14.6386 10.7008 14.4963 10.8787 14.4963H13.1767C13.3545 14.4963 13.4993 14.6386 13.4993 14.8136V22.8442ZM20.9281 22.8442H17.9849V8.16095C17.9849 7.98597 18.1296 7.84364 18.3075 7.84364H20.6055C20.7834 7.84364 20.9281 7.98597 20.9281 8.16095V22.8442Z" fill="white"/>
<path d="M21.8645 0.644647C21.871 0.518822 21.826 0.390876 21.7284 0.29479C21.6307 0.198704 21.5006 0.154396 21.3727 0.160897C21.3651 0.160574 21.3577 0.15979 21.35 0.15979H18.514C18.2551 0.15979 18.0453 0.366209 18.0453 0.620856C18.0453 0.875502 18.2551 1.08192 18.514 1.08192H20.2651L15.6312 5.63992L13.8837 3.92107C13.7958 3.83462 13.6766 3.78602 13.5523 3.78602C13.428 3.78602 13.3087 3.83462 13.2208 3.92107L4.79415 12.2096C4.6111 12.3897 4.6111 12.6816 4.79415 12.8617C4.88569 12.9517 5.00565 12.9967 5.1256 12.9967C5.24555 12.9967 5.36555 12.9517 5.45705 12.8616L13.5523 4.89908L15.2998 6.61794C15.4828 6.79798 15.7796 6.79798 15.9627 6.61794L20.9281 1.73401V3.29287C20.9281 3.54752 21.138 3.75393 21.3969 3.75393C21.6557 3.75393 21.8656 3.54752 21.8656 3.29287V0.666962C21.8656 0.659447 21.8648 0.652116 21.8645 0.644647Z" fill="white"/>
<path d="M3.54562 14.6055C3.80451 14.6055 4.01437 14.3991 4.01437 14.1444C4.01437 13.8898 3.80451 13.6833 3.54562 13.6833C3.28674 13.6833 3.07687 13.8898 3.07687 14.1444C3.07687 14.3991 3.28674 14.6055 3.54562 14.6055Z" fill="white"/>
</g>
<defs>
<clipPath id="clip0">
<rect width="24" height="23.6066" fill="white" transform="translate(0 0.15979)"/>
</clipPath>
</defs>
</svg>
