<svg width="32" height="32" viewBox="0 0 32 32" fill="none" xmlns="http://www.w3.org/2000/svg">
<g clip-path="url(#clip0)">
<path d="M28.8916 25.1737C28.5448 23.0942 27.0867 21.3879 25.0867 20.721L20.6454 19.2408V18.5806H19.6132V19.5293L19.5869 19.6088C19.0712 21.1546 17.6302 22.1935 16.0003 22.1935C14.3703 22.1935 12.9293 21.1546 12.4142 19.6088L12.3874 19.5288V18.5806H11.3551V19.2408L6.91434 20.721C4.91434 21.3879 3.45628 23.0942 3.10944 25.1737L1.97137 32H30.0287L28.8916 25.1737ZM6.75899 30.9677H3.19047L3.44028 29.4663L6.86634 29.8947L6.75899 30.9677ZM15.4841 30.9677H7.79641L8.25576 26.3742L7.22867 26.2715L6.96905 28.8676L3.61008 28.448L4.12725 25.3445C4.41112 23.6423 5.60389 22.2462 7.24054 21.7006L9.39589 20.9822C10.3027 23.0276 12.1355 24.5744 14.3327 25.0942L14.5706 24.0898C12.7198 23.6521 11.1709 22.3633 10.3801 20.6544L11.558 20.2617C12.2336 21.889 13.7407 23.0085 15.4841 23.1953V30.9677ZM24.7719 26.2704L23.7448 26.3731L24.2042 30.9667H16.5164V23.1948C18.2599 23.008 19.767 21.889 20.4431 20.2617L21.6204 20.6539C20.8297 22.3628 19.2813 23.6516 17.43 24.0893L17.6679 25.0937C19.8651 24.5739 21.6978 23.0271 22.6047 20.9817L24.76 21.7001C26.3967 22.2457 27.5894 23.6418 27.8733 25.3435L28.3905 28.447L25.0315 28.8666L24.7719 26.2704ZM25.2416 30.9677L25.1342 29.8947L28.5603 29.4663L28.8101 30.9677H25.2416Z" fill="white"/>
<path d="M9.51878 13.9066C9.78201 14.8124 10.2682 15.6428 10.9536 16.3283L12.966 18.3412C13.4532 18.8284 14.1015 19.0968 14.791 19.0968H17.2096C17.8992 19.0968 18.5474 18.8284 19.0347 18.3412L21.047 16.3283C21.7325 15.6428 22.2181 14.8119 22.4819 13.9066C23.7681 13.761 24.7745 12.6792 24.7745 11.3548C24.7745 11.0534 24.7172 10.7572 24.6156 10.4769C24.7141 10.273 24.7745 10.0475 24.7745 9.80645V8.77419C24.7745 3.936 20.8385 0 16.0003 0C11.1621 0 7.22614 3.936 7.22614 8.77419V9.80645C7.22614 10.0475 7.28652 10.273 7.3851 10.4769C7.28343 10.7572 7.22614 11.0534 7.22614 11.3548C7.22614 12.6792 8.23259 13.761 9.51878 13.9066ZM20.3172 15.5985L18.3048 17.6114C18.0122 17.9035 17.6236 18.0645 17.2096 18.0645H14.791C14.3771 18.0645 13.9879 17.9035 13.6958 17.6114L11.6834 15.5985C11.1002 15.0147 10.6956 14.3019 10.487 13.5252C10.8876 13.7822 11.3608 13.9355 11.8713 13.9355H12.9036C13.7113 13.9355 14.4834 13.5494 14.9681 12.9032L15.7423 11.871H16.2584L17.0326 12.9032C17.5172 13.5494 18.2894 13.9355 19.0971 13.9355H20.1294C20.6398 13.9355 21.1131 13.7822 21.5141 13.5252C21.3056 14.3014 20.901 15.0147 20.3172 15.5985ZM21.6778 11.3548C21.6778 12.2085 20.983 12.9032 20.1294 12.9032H19.0971C18.6125 12.9032 18.1495 12.6715 17.8584 12.2839L16.7745 10.8387H15.2261L14.1423 12.2839C13.8512 12.6715 13.3882 12.9032 12.9036 12.9032H11.8713C11.0176 12.9032 10.3229 12.2085 10.3229 11.3548V10.5363L10.9639 9.89523C11.3541 9.50503 11.8728 9.29032 12.4241 9.29032H19.5761C20.1273 9.29032 20.646 9.50503 21.0362 9.89471L21.6778 10.5363V11.3548ZM22.6858 12.8155C22.7002 12.6498 22.71 12.4826 22.71 12.3138V11.3548H23.2261C23.4037 11.3548 23.5714 11.3187 23.7304 11.2635C23.7319 11.2945 23.7423 11.3239 23.7423 11.3548C23.7423 12.0356 23.2974 12.609 22.6858 12.8155ZM16.0003 1.03226C16.5273 1.03226 17.0414 1.08594 17.5389 1.18658C17.4883 1.98916 17.0605 2.64103 16.6032 3.32645C16.3993 3.632 16.1861 3.95407 16.0003 4.30245C15.8145 3.95407 15.6014 3.632 15.3975 3.32645C14.9402 2.64103 14.5123 1.98916 14.4618 1.18658C14.9593 1.08594 15.4734 1.03226 16.0003 1.03226ZM8.25839 8.77419C8.25839 7.62839 8.51543 6.54348 8.96394 5.56439L9.01452 5.61497C10.0535 6.65394 11.4341 7.22581 12.9036 7.22581H13.4197V6.03716L13.333 5.9071C13.3232 5.89316 12.3874 4.47329 12.3874 3.09677H11.3552C11.3552 4.35406 11.9523 5.57987 12.2744 6.15019C11.3196 6.01652 10.4375 5.57884 9.74433 4.88516L9.47852 4.61936C10.405 3.17006 11.7985 2.05213 13.4481 1.47355C13.5709 2.44645 14.0814 3.2129 14.5387 3.89936C15.0248 4.62865 15.4842 5.31768 15.4842 6.19355H16.5165C16.5165 5.31768 16.9758 4.62865 17.462 3.89936C17.9198 3.2129 18.4298 2.44697 18.5526 1.47355C20.2016 2.05213 21.5952 3.17006 22.5221 4.61936L22.2563 4.88516C21.5627 5.57884 20.6806 6.01652 19.7263 6.15019C20.0483 5.57987 20.6455 4.35406 20.6455 3.09677H19.6132C19.6132 4.46503 18.677 5.89316 18.6672 5.90761L18.581 6.03819V7.22581H19.0971C20.5665 7.22581 21.9472 6.65394 22.9861 5.61445L23.0367 5.56387C23.4852 6.54348 23.7423 7.62839 23.7423 8.77419V9.80645C23.7423 10.0908 23.511 10.3226 23.2261 10.3226H22.9237L21.7665 9.1649C21.1807 8.58013 20.4029 8.25807 19.5766 8.25807H12.4241C11.5972 8.25807 10.8199 8.58013 10.2341 9.1649L9.07697 10.3226H8.77452C8.48962 10.3226 8.25839 10.0908 8.25839 9.80645V8.77419ZM8.27027 11.2635C8.42923 11.3187 8.59697 11.3548 8.77452 11.3548H9.29065V12.3138C9.29065 12.4826 9.30046 12.6498 9.31491 12.816C8.7033 12.609 8.25839 12.0356 8.25839 11.3548C8.25839 11.3239 8.26872 11.2945 8.27027 11.2635Z" fill="white"/>
</g>
<defs>
<clipPath id="clip0">
<rect width="32" height="32" fill="white"/>
</clipPath>
</defs>
</svg>
