<svg width="32" height="32" viewBox="0 0 32 32" fill="none" xmlns="http://www.w3.org/2000/svg">
<g clip-path="url(#clip0)">
<path d="M27.3137 4.68625C24.2917 1.66431 20.2737 0 15.9999 0C12.9281 0 9.94382 0.873063 7.36988 2.52481C7.12338 2.683 7.05182 3.011 7.20994 3.25756C7.36813 3.50413 7.69625 3.57569 7.94269 3.41744C10.3454 1.87556 13.1316 1.06063 15.9999 1.06063C24.2375 1.06063 30.9392 7.76238 30.9392 15.9999C30.9392 18.6667 30.2281 21.2838 28.8827 23.5685C27.5762 25.787 25.7084 27.6421 23.4812 28.9334C23.2278 29.0803 23.1414 29.4049 23.2884 29.6583C23.3868 29.8279 23.5649 29.9226 23.7478 29.9226C23.8381 29.9226 23.9296 29.8995 24.0133 29.851C26.3981 28.4684 28.398 26.4821 29.7967 24.1067C31.2382 21.6591 32 18.8559 32 15.9999C32 11.7263 30.3357 7.70825 27.3137 4.68625Z" fill="white"/>
<path d="M22.2001 30.1866C22.0919 29.9145 21.7836 29.7814 21.5114 29.8895C19.7574 30.5861 17.9031 30.9394 15.9999 30.9394C7.76237 30.9394 1.06062 24.2376 1.06062 16C1.06062 11.6345 2.96369 7.49902 6.28194 4.65414C6.50431 4.46352 6.53 4.12871 6.33938 3.90633C6.14881 3.68402 5.81394 3.65827 5.59163 3.84889C2.03806 6.89558 0 11.3245 0 16C0 20.2736 1.66425 24.2917 4.68625 27.3137C7.70831 30.3357 11.7262 32 15.9999 32C18.0378 32 20.0238 31.6216 21.903 30.8753C22.1752 30.7671 22.3082 30.4589 22.2001 30.1866Z" fill="white"/>
<path d="M24.6155 7.49753C24.5998 7.47622 24.583 7.4556 24.5638 7.43635C24.5445 7.4171 24.5239 7.40022 24.5026 7.3846C22.3142 5.22466 19.3103 3.88916 16 3.88916C12.6896 3.88916 9.68572 5.22466 7.49735 7.3846C7.47604 7.40022 7.45541 7.41704 7.43616 7.43629C7.41691 7.45554 7.40004 7.47622 7.38441 7.49747C5.2246 9.68585 3.8891 12.6897 3.8891 16C3.8891 19.3102 5.2246 22.3141 7.38447 24.5025C7.4001 24.5238 7.41697 24.5444 7.43622 24.5637C7.45547 24.5829 7.47616 24.5998 7.49741 24.6154C9.68579 26.7753 12.6896 28.1108 15.9999 28.1108C19.3102 28.1108 22.3142 26.7753 24.5025 24.6153C24.5238 24.5997 24.5445 24.5829 24.5637 24.5637C24.583 24.5444 24.5998 24.5238 24.6155 24.5025C26.7753 22.3142 28.1108 19.3103 28.1108 16C28.1108 12.6897 26.7754 9.68585 24.6155 7.49753ZM24.1763 23.4261L22.3717 21.6215C22.1645 21.4143 21.8287 21.4143 21.6216 21.6215C21.4143 21.8286 21.4143 22.1644 21.6215 22.3715L23.4262 24.1762C21.585 25.8499 19.1782 26.9115 16.5304 27.0373V24.4803C16.5304 24.1874 16.293 23.95 16.0001 23.95C15.7072 23.95 15.4698 24.1874 15.4698 24.4803V27.0373C12.822 26.9115 10.4152 25.8499 8.57404 24.1762L10.3787 22.3715C10.5858 22.1644 10.5858 21.8286 10.3787 21.6216C10.1716 21.4145 9.83585 21.4145 9.62866 21.6216L7.82404 23.4262C6.15029 21.585 5.08866 19.1782 4.96291 16.5305H7.51985C7.81279 16.5305 8.05016 16.293 8.05016 16.0002C8.05016 15.7073 7.81279 15.4698 7.51985 15.4698H4.96291C5.08866 12.822 6.15029 10.4153 7.82404 8.5741L9.62866 10.3787C9.73222 10.4822 9.86804 10.5341 10.0037 10.5341C10.1394 10.5341 10.2752 10.4823 10.3788 10.3787C10.5859 10.1716 10.5859 9.83578 10.3788 9.62879L8.5741 7.82416C10.4153 6.15041 12.8221 5.08878 15.4698 4.96303V7.52004C15.4698 7.81291 15.7072 8.05035 16.0002 8.05035C16.2931 8.05035 16.5305 7.81291 16.5305 7.52004V4.96285C19.1783 5.0886 21.585 6.15022 23.4262 7.82397L21.6215 9.6286C21.4144 9.83572 21.4144 10.1715 21.6215 10.3785C21.7251 10.4821 21.8608 10.5339 21.9966 10.5339C22.1323 10.5339 22.268 10.4822 22.3717 10.3785L24.1763 8.57391C25.85 10.4151 26.9117 12.8219 27.0374 15.4697H24.4805C24.1875 15.4697 23.9502 15.7071 23.9502 16C23.9502 16.2928 24.1875 16.5303 24.4805 16.5303H27.0374C26.9117 19.1781 25.85 21.5849 24.1763 23.4261Z" fill="white"/>
<path d="M19.9916 17.7415L17.5911 15.341V10.6607C17.5911 9.78339 16.8774 9.0697 16.0001 9.0697C15.1227 9.0697 14.4091 9.78339 14.4091 10.6607V16C14.4091 16.4251 14.5745 16.8246 14.8751 17.125L17.7416 19.9915C18.0421 20.292 18.4416 20.4575 18.8666 20.4575C19.2916 20.4575 19.6911 20.292 19.9915 19.9915C20.2921 19.6911 20.4576 19.2915 20.4576 18.8665C20.4575 18.4415 20.2921 18.042 19.9916 17.7415ZM19.2415 19.2416C19.1414 19.3418 19.0081 19.397 18.8665 19.397C18.7249 19.397 18.5917 19.3418 18.4915 19.2416L15.625 16.375C15.5249 16.2749 15.4697 16.1416 15.4697 16V10.6607C15.4697 10.3683 15.7076 10.1304 16.0001 10.1304C16.2924 10.1304 16.5304 10.3683 16.5304 10.6608V15.7804L19.2416 18.4916C19.3417 18.5918 19.3968 18.7249 19.3968 18.8666C19.3968 19.0082 19.3417 19.1414 19.2415 19.2416Z" fill="white"/>
</g>
<defs>
<clipPath id="clip0">
<rect width="32" height="32" fill="white"/>
</clipPath>
</defs>
</svg>
