<svg width="32" height="32" viewBox="0 0 32 32" fill="none" xmlns="http://www.w3.org/2000/svg">
<g clip-path="url(#clip0)">
<path d="M31.9383 17.4781C31.651 14.5882 30.3599 11.8637 28.3028 9.8065C26.5447 8.04854 24.3929 6.91883 22.1288 6.41651V4.82849C23.0535 4.59842 23.7409 3.76134 23.7409 2.76639C23.7409 1.59462 22.7877 0.641357 21.6159 0.641357H17.1158C15.9441 0.641357 14.9908 1.59462 14.9908 2.76639C14.9908 3.76128 15.6782 4.59836 16.6029 4.82849V6.42095C14.3457 6.92539 12.201 8.05354 10.448 9.80656C10.0643 10.1902 9.71059 10.5926 9.38677 11.0109C9.37108 11.0097 9.3554 11.0085 9.3394 11.0085H4.88551C4.54038 11.0085 4.2605 11.2883 4.2605 11.6335C4.2605 11.9787 4.54038 12.2585 4.88551 12.2585H8.53632C8.07806 13.0257 7.70856 13.8314 7.4273 14.6608H0.62501C0.279879 14.6608 0 14.9406 0 15.2858C0 15.631 0.279879 15.9108 0.62501 15.9108H7.07411C6.89398 16.7015 6.79061 17.5062 6.76392 18.3132H4.00006C3.65493 18.3132 3.37505 18.593 3.37505 18.9382C3.37505 19.2834 3.65493 19.5632 4.00006 19.5632H6.78386C6.83661 20.3722 6.96667 21.177 7.17411 21.9656H3.12505C2.77992 21.9656 2.50004 22.2454 2.50004 22.5906C2.50004 22.9358 2.77992 23.2156 3.12505 23.2156H7.57299C8.18613 24.8375 9.14433 26.3578 10.448 27.6614C12.5071 29.7206 15.2344 31.012 18.1273 31.2978C18.5402 31.3385 18.9534 31.3587 19.3661 31.3587C21.805 31.3587 24.2129 30.6529 26.256 29.3224C26.5453 29.134 26.6271 28.7468 26.4387 28.4575C26.2503 28.1683 25.8632 28.0865 25.5739 28.2749C21.1015 31.1872 15.1119 30.5575 11.3319 26.7775C6.89667 22.3423 6.89667 15.1258 11.3319 10.6905C15.767 6.25538 22.9835 6.25538 27.4188 10.6905C31.1938 14.4656 31.8269 20.4501 28.9242 24.9203C28.7362 25.2098 28.8185 25.5969 29.108 25.7849C29.3976 25.9729 29.7846 25.8906 29.9725 25.6011C31.5234 23.2126 32.2216 20.3279 31.9383 17.4781ZM16.2408 2.76645C16.2408 2.28395 16.6333 1.89144 17.1158 1.89144H21.6159C22.0984 1.89144 22.4909 2.28395 22.4909 2.76645C22.4909 3.24896 22.0984 3.64147 21.6159 3.64147H21.5038H17.2279H17.1158C16.6333 3.64147 16.2408 3.2489 16.2408 2.76645ZM17.8529 6.20607V4.89149H20.8788V6.20382C19.874 6.08432 18.8575 6.08507 17.8529 6.20607Z" fill="white"/>
<path d="M27.8611 26.5941C27.6961 26.5941 27.5355 26.661 27.4193 26.7772C27.3024 26.8935 27.2361 27.0547 27.2361 27.2191C27.2361 27.3835 27.3024 27.5447 27.4193 27.661C27.5355 27.7779 27.6961 27.8441 27.8611 27.8441C28.0255 27.8441 28.1861 27.7779 28.303 27.661C28.4192 27.5447 28.4861 27.3835 28.4861 27.2191C28.4861 27.0547 28.4193 26.8935 28.303 26.7772C28.1861 26.661 28.0254 26.5941 27.8611 26.5941Z" fill="white"/>
<path d="M19.3754 9.03821C14.0292 9.03821 9.67969 13.3877 9.67969 18.7339C9.67969 24.0802 14.0292 28.4296 19.3754 28.4296C24.7216 28.4296 29.0711 24.0802 29.0711 18.7339C29.0711 13.3877 24.7216 9.03821 19.3754 9.03821ZM19.3754 27.1796C14.7184 27.1796 10.9297 23.3909 10.9297 18.7339C10.9297 14.077 14.7184 10.2882 19.3754 10.2882C24.0324 10.2882 27.8211 14.077 27.8211 18.7339C27.8211 23.3909 24.0324 27.1796 19.3754 27.1796Z" fill="white"/>
<path d="M23.3288 13.8964L20.2332 16.992C19.9743 16.864 19.6831 16.7917 19.3753 16.7917C19.0674 16.7917 18.7763 16.864 18.5174 16.992L17.1319 15.6066C16.8878 15.3625 16.4922 15.3625 16.248 15.6066C16.0039 15.8506 16.0039 16.2464 16.248 16.4905L17.6334 17.8759C17.5054 18.1348 17.4331 18.426 17.4331 18.7338C17.4331 19.8047 18.3043 20.676 19.3753 20.676C20.4462 20.676 21.3174 19.8047 21.3174 18.7338C21.3174 18.426 21.2451 18.1348 21.1171 17.8759L24.1219 14.8711L24.2127 14.7803C24.4568 14.5363 24.4568 14.1405 24.2127 13.8964C23.9687 13.6524 23.573 13.6524 23.3288 13.8964ZM19.3753 19.426C18.9937 19.426 18.6832 19.1155 18.6832 18.7339C18.6832 18.3522 18.9937 18.0417 19.3753 18.0417C19.7569 18.0417 20.0674 18.3522 20.0674 18.7339C20.0674 19.1155 19.7569 19.426 19.3753 19.426Z" fill="white"/>
<path d="M26.0579 18.1166H25.4788C25.1337 18.1166 24.8538 18.3964 24.8538 18.7416C24.8538 19.0868 25.1337 19.3666 25.4788 19.3666H26.0579C26.403 19.3666 26.6829 19.0868 26.6829 18.7416C26.6829 18.3964 26.403 18.1166 26.0579 18.1166Z" fill="white"/>
<path d="M13.2718 18.1012H12.6928C12.3477 18.1012 12.0678 18.381 12.0678 18.7262C12.0678 19.0714 12.3477 19.3512 12.6928 19.3512H13.2718C13.6169 19.3512 13.8968 19.0714 13.8968 18.7262C13.8968 18.381 13.6169 18.1012 13.2718 18.1012Z" fill="white"/>
<path d="M19.383 13.2554C19.7281 13.2554 20.008 12.9756 20.008 12.6304V12.0514C20.008 11.7062 19.7281 11.4264 19.383 11.4264C19.0379 11.4264 18.758 11.7062 18.758 12.0514V12.6304C18.758 12.9756 19.0379 13.2554 19.383 13.2554Z" fill="white"/>
<path d="M19.3677 24.2124C19.0226 24.2124 18.7427 24.4922 18.7427 24.8374V25.4164C18.7427 25.7616 19.0226 26.0414 19.3677 26.0414C19.7129 26.0414 19.9927 25.7616 19.9927 25.4164V24.8374C19.9927 24.4922 19.7129 24.2124 19.3677 24.2124Z" fill="white"/>
<path d="M0.625 21.9653C0.460625 21.9653 0.299375 22.0322 0.183125 22.1485C0.066875 22.2647 0 22.426 0 22.5903C0 22.7553 0.0668125 22.916 0.183125 23.0322C0.299437 23.1485 0.460625 23.2153 0.625 23.2153C0.789375 23.2153 0.950625 23.1485 1.06681 23.0322C1.18306 22.916 1.25 22.7547 1.25 22.5903C1.25 22.426 1.18313 22.2647 1.06681 22.1485C0.950625 22.0322 0.789375 21.9653 0.625 21.9653Z" fill="white"/>
</g>
<defs>
<clipPath id="clip0">
<rect width="32" height="32" fill="white"/>
</clipPath>
</defs>
</svg>
