<svg width="64" height="65" viewBox="0 0 64 65" fill="none" xmlns="http://www.w3.org/2000/svg">
<g clip-path="url(#clip0)">
<path d="M23.4219 61.9915C23.0938 61.9915 22.7715 62.1255 22.5391 62.3584C22.3066 62.5913 22.1729 62.9142 22.1729 63.2434C22.1729 63.5722 22.3066 63.8951 22.5391 64.128C22.7715 64.3608 23.0938 64.4949 23.4219 64.4949C23.7505 64.4949 24.0728 64.3608 24.3052 64.128C24.5376 63.8951 24.6714 63.5722 24.6714 63.2434C24.6714 62.9142 24.5376 62.5913 24.3052 62.3584C24.0728 62.1255 23.7505 61.9915 23.4219 61.9915Z" fill="white"/>
<path d="M62.626 26.7385C62.2974 26.7385 61.9751 26.8726 61.7427 27.1055C61.5103 27.3383 61.377 27.6612 61.377 27.9905C61.377 28.3207 61.5103 28.6421 61.7427 28.875C61.9751 29.1079 62.2974 29.242 62.626 29.242C62.9546 29.242 63.2769 29.1079 63.5088 28.875C63.7412 28.6421 63.875 28.3207 63.875 27.9905C63.875 27.6612 63.7412 27.3383 63.5088 27.1055C63.2769 26.8726 62.9546 26.7385 62.626 26.7385Z" fill="white"/>
<path d="M53.0064 16.5821C51.503 15.0762 49.0576 15.0767 47.5547 16.5821L46.895 17.243L34.8135 5.13783C33.8037 4.12609 32.461 3.56885 31.0332 3.56885C29.6055 3.56885 28.2627 4.12609 27.2529 5.13783L14.3325 18.083L8.70508 12.4446C8.042 11.7802 7.16016 11.4142 6.22217 11.4142C5.28369 11.4142 4.40186 11.7802 3.73877 12.4446L0.285645 15.9045C-0.202149 16.3932 -0.202149 17.1858 0.285645 17.6745C0.773438 18.1633 1.56445 18.1633 2.05225 17.6745L5.50537 14.2146C5.90039 13.8188 6.54395 13.8188 6.93897 14.2146L12.5664 19.8531L0.240723 32.2029C-0.24707 32.6916 -0.24707 33.4837 0.240723 33.973C0.484864 34.2171 0.8042 34.3394 1.12402 34.3394C1.44385 34.3394 1.76367 34.2171 2.00733 33.973L29.0195 6.90789C29.5571 6.36875 30.2725 6.07178 31.0332 6.07178C31.794 6.07178 32.5088 6.36875 33.0469 6.90789L45.1284 19.0131L35.7305 28.4294L32.2222 25.3144C34.2388 24.6701 35.7036 22.7753 35.7036 20.5439C35.7036 17.7836 33.4619 15.538 30.7071 15.538C27.9522 15.538 25.7105 17.7836 25.7105 20.5439C25.7105 20.6055 25.7129 20.6667 25.7153 20.7278C23.895 20.4279 21.961 20.9778 20.5601 22.3815L12.1968 30.7611C12.1939 30.7641 12.1919 30.767 12.189 30.7699C12.1563 30.8037 12.125 30.8389 12.0957 30.8766C12.0923 30.881 12.0884 30.8854 12.085 30.8893C12.084 30.8913 12.0825 30.8927 12.0816 30.8942C11.5649 31.5825 11.2534 32.3957 11.1567 33.2729H7.95215C7.26221 33.2729 6.70313 33.833 6.70313 34.5243V35.7768C6.70313 38.0331 8.53565 39.8692 10.7881 39.8692H13.1182L12.7051 41.655C12.2632 41.6026 11.8135 41.5747 11.3574 41.5747C5.05078 41.5747 -0.0800781 46.7156 -0.0800781 53.0346C-0.0800781 56.6559 1.60547 59.8898 4.23096 61.9915H1.16895C0.479004 61.9915 -0.0800781 62.5522 -0.0800781 63.243C-0.0800781 63.9343 0.479004 64.4945 1.16895 64.4945H11.3574C16.7739 64.4945 21.3233 60.7024 22.4995 55.6285C22.728 55.88 23.0562 56.0385 23.4224 56.0385H30.1948C30.8404 58.4187 32.2344 60.493 34.1065 61.9915H28.3819C27.6919 61.9915 27.1328 62.5522 27.1328 63.243C27.1328 63.9343 27.6919 64.4945 28.3819 64.4945H41.2324C47.5391 64.4945 52.67 59.3541 52.67 53.0346C52.67 46.7156 47.5391 41.5747 41.2324 41.5747C40.5928 41.5747 39.9654 41.6285 39.354 41.7303L39.3223 41.6168C38.75 39.5801 38.46 37.4744 38.46 35.3585V32.6677H40.6621C41.3423 32.6677 41.8955 33.222 41.8955 33.9035C41.8955 34.5845 41.3423 35.1393 40.6621 35.1393C39.9722 35.1393 39.4131 35.6995 39.4131 36.3908C39.4131 37.0816 39.9722 37.6422 40.6621 37.6422C42.7198 37.6422 44.3936 35.9651 44.3936 33.9035C44.3936 31.8418 42.7198 30.1642 40.6621 30.1642H37.6846L37.6035 30.0923L49.3213 18.3521C49.8496 17.8223 50.7105 17.8223 51.2398 18.3521L58.5157 25.6422C59.0035 26.131 59.7945 26.131 60.2823 25.6422C60.7701 25.1535 60.7701 24.3609 60.2823 23.8722L53.0064 16.5821ZM24.315 49.4426L22.5068 41.5449C22.4292 41.2058 22.2144 40.9147 21.9141 40.7406L15.3018 36.9152C14.5127 36.4588 13.896 35.5542 13.6929 34.5551C13.5879 34.041 13.6001 33.5522 13.7232 33.1227L20.2212 34.9201L23.9292 38.6354C24.8443 39.5522 25.4517 40.7097 25.6865 41.9842L26.8848 49.4426H24.315ZM14.5708 44.6794C17.5425 45.8306 19.751 48.5282 20.2075 51.7836H12.9287L14.5708 44.6794ZM25.6958 36.8653L22.6377 33.8017L26.5801 29.8511L35.9961 36.6853C36.0078 36.9128 36.0235 37.1398 36.0415 37.3663H26.1592C26.0117 37.1941 25.8569 37.0273 25.6958 36.8653ZM30.7071 18.041C32.0845 18.041 33.2051 19.1638 33.2051 20.5444C33.2051 21.9245 32.0845 23.0473 30.7071 23.0473C29.3296 23.0473 28.2085 21.9245 28.2085 20.5444C28.2085 19.1638 29.3296 18.041 30.7071 18.041ZM22.3267 24.152C23.6607 22.8149 25.8316 22.8149 27.1655 24.1515L27.2959 24.2822C27.3135 24.2998 27.332 24.3174 27.3506 24.334L35.9614 31.9793V33.5693L27.1831 27.198C26.9629 27.0385 26.7061 26.9602 26.4507 26.9602C26.1289 26.9602 25.8086 27.0845 25.5669 27.3267L20.5025 32.4015L19.3775 32.0904L15.48 31.0121L22.3267 24.152ZM9.20167 35.7768L11.439 35.7763C11.6274 36.3458 11.8941 36.8829 12.2261 37.3663H10.7881C9.91309 37.3663 9.20167 36.6535 9.20167 35.7768ZM15.6504 40.0072L20.1934 42.6359L21.2647 47.3135C19.9053 44.9597 17.7349 43.1334 15.1392 42.2195L15.6504 40.0072ZM11.3574 61.9915C6.42823 61.9915 2.41797 57.9739 2.41797 53.0351C2.41797 48.0962 6.42823 44.0781 11.3574 44.0781C11.6201 44.0781 11.8799 44.0923 12.1367 44.1143L10.1401 52.7528C10.0542 53.1246 10.1426 53.515 10.3794 53.814C10.6162 54.1129 10.9761 54.2866 11.3569 54.2866H20.2075C19.5977 58.6349 15.8623 61.9915 11.3574 61.9915ZM24.6714 53.5361V51.9456H27.3325C27.4873 51.9456 27.6382 51.9602 27.7857 51.9862C27.9463 52.0737 28.1265 52.1261 28.3154 52.1364C28.9585 52.3957 29.478 52.9006 29.7554 53.5361H24.6714ZM41.2324 44.0781C46.1616 44.0781 50.1719 48.0962 50.1719 53.0351C50.1719 57.9734 46.1616 61.9915 41.2324 61.9915C36.9126 61.9915 33.2988 58.905 32.4717 54.8174C32.4717 54.8071 32.4732 54.7973 32.4732 54.787V54.5928C32.4732 54.1339 32.4121 53.6892 32.2993 53.2655C32.2969 53.1887 32.2935 53.1119 32.2935 53.0346C32.2935 49.379 34.4917 46.2298 37.6323 44.8394L40.0303 53.3741C40.1851 53.926 40.6865 54.2866 41.232 54.2866C41.3438 54.2866 41.458 54.2714 41.5708 54.2396C42.2349 54.0522 42.6221 53.3609 42.4351 52.6956L40.0371 44.1603C40.4282 44.108 40.8272 44.0781 41.2324 44.0781ZM30.1309 50.2758C29.9273 50.1427 29.7139 50.0238 29.4917 49.9206L28.1509 41.5728C28.1494 41.564 28.148 41.5551 28.1465 41.5463C28.041 40.9681 27.8794 40.4074 27.667 39.8697H36.3623C36.5078 40.6858 36.6929 41.4955 36.9175 42.2954L36.9497 42.4098C33.5889 43.7743 31.0176 46.6956 30.1309 50.2758Z" fill="white"/>
<path d="M48.6812 13.0986L59.8018 13.1045C62.0479 13.1045 63.875 11.2733 63.875 9.02328C63.875 6.77279 62.0479 4.94158 59.8018 4.94158C59.7491 4.94158 59.6968 4.94256 59.6446 4.94452C58.8614 2.31585 56.4229 0.414673 53.5762 0.414673C51.9068 0.414673 50.3316 1.05949 49.1407 2.23121C48.1905 3.16565 47.5699 4.35107 47.3418 5.64021C45.8765 6.18962 44.8384 7.61184 44.8384 9.24784C44.8384 11.3711 46.5625 13.0986 48.6812 13.0986ZM48.583 7.90489C49.2271 7.8589 49.73 7.32808 49.7427 6.68131C49.7837 4.60597 51.5035 2.91761 53.5762 2.91761C55.5967 2.91761 57.2774 4.49882 57.4024 6.51741C57.4278 6.9269 57.6519 7.29824 58.0025 7.51056C58.3531 7.72289 58.7857 7.7498 59.1592 7.58199C59.3623 7.49099 59.5787 7.44452 59.8018 7.44452C60.67 7.44452 61.377 8.15293 61.377 9.02279C61.377 9.89315 60.67 10.6011 59.8023 10.6011L48.6822 10.5952C48.6817 10.5952 48.6817 10.5952 48.6817 10.5952C47.94 10.5952 47.3369 9.99099 47.3369 9.24784C47.3365 8.54481 47.8843 7.95479 48.583 7.90489Z" fill="white"/>
</g>
<defs>
<clipPath id="clip0">
<rect width="64" height="64" fill="white" transform="translate(0 0.352051)"/>
</clipPath>
</defs>
</svg>
