<svg width="64" height="65" viewBox="0 0 64 65" fill="none" xmlns="http://www.w3.org/2000/svg">
<g clip-path="url(#clip0)">
<path d="M26.0524 27.8023V32.0281C26.0524 32.5458 26.4721 32.9656 26.9899 32.9656C27.5076 32.9656 27.9274 32.5458 27.9274 32.0281V29.9596H31.0625V34.0322C31.0625 34.55 31.4822 34.9697 32 34.9697C32.5177 34.9697 32.9375 34.55 32.9375 34.0322V29.9596H36.0726V32.0281C36.0726 32.5458 36.4924 32.9656 37.0101 32.9656C37.5279 32.9656 37.9476 32.5458 37.9476 32.0281V27.8023C39.1112 27.41 39.9516 26.3082 39.9516 25.014V15.9957C39.9516 14.3737 38.632 13.0542 37.0101 13.0542H35.8301C35.4082 11.331 33.8515 10.0482 32.0001 10.0482C30.1487 10.0482 28.592 11.331 28.1701 13.0542H26.9901C25.3681 13.0542 24.0486 14.3738 24.0486 15.9957V25.014C24.0484 26.3083 24.8887 27.4101 26.0524 27.8023ZM32 11.9232C33.1406 11.9232 34.0685 12.8511 34.0685 13.9917C34.0685 15.1323 33.1406 16.0603 32 16.0603C30.8594 16.0603 29.9315 15.1323 29.9315 13.9917C29.9315 12.8511 30.8594 11.9232 32 11.9232ZM25.9234 15.9958C25.9234 15.4077 26.4019 14.9293 26.9899 14.9293H28.1699C28.5917 16.6526 30.1485 17.9355 31.9999 17.9355C33.8512 17.9355 35.408 16.6526 35.8299 14.9293H37.0099C37.598 14.9293 38.0764 15.4078 38.0764 15.9958V25.0141C38.0764 25.6022 37.5979 26.0806 37.0099 26.0806C36.4921 26.0806 36.0724 26.5003 36.0724 27.0181V28.0846H27.9272V27.0181C27.9272 26.5003 27.5075 26.0806 26.9897 26.0806C26.4016 26.0806 25.9232 25.6021 25.9232 25.0141V15.9958H25.9234Z" fill="white"/>
<path d="M48.0967 27.8023V32.0281C48.0967 32.5458 48.5165 32.9656 49.0342 32.9656C49.552 32.9656 49.9717 32.5458 49.9717 32.0281V29.9596H53.1069V34.0322C53.1069 34.55 53.5266 34.9697 54.0444 34.9697C54.5621 34.9697 54.9819 34.55 54.9819 34.0322V29.9596H58.117V32.0281C58.117 32.5458 58.5367 32.9656 59.0545 32.9656C59.5722 32.9656 59.992 32.5458 59.992 32.0281V27.8023C61.1556 27.41 61.996 26.3082 61.996 25.014V15.9957C61.996 14.3737 60.6764 13.0542 59.0545 13.0542H57.8745C57.4526 11.331 55.8959 10.0482 54.0445 10.0482C52.1931 10.0482 50.6364 11.331 50.2145 13.0542H49.0345C47.4125 13.0542 46.0929 14.3738 46.0929 15.9957V25.014C46.0927 26.3083 46.933 27.4101 48.0967 27.8023ZM54.0444 11.9232C55.185 11.9232 56.1129 12.8511 56.1129 13.9917C56.1129 15.1323 55.185 16.0603 54.0444 16.0603C52.9037 16.0603 51.9759 15.1323 51.9759 13.9917C51.9759 12.8511 52.9037 11.9232 54.0444 11.9232ZM47.9677 15.9958C47.9677 15.4077 48.4462 14.9293 49.0344 14.9293H50.2144C50.6362 16.6526 52.193 17.9355 54.0444 17.9355C55.8957 17.9355 57.4525 16.6526 57.8744 14.9293H59.0544C59.6425 14.9293 60.1209 15.4078 60.1209 15.9958V25.0141C60.1209 25.6022 59.6424 26.0806 59.0544 26.0806C58.5366 26.0806 58.1169 26.5003 58.1169 27.0181V28.0846H49.9717V27.0181C49.9717 26.5003 49.552 26.0806 49.0342 26.0806C48.4461 26.0806 47.9676 25.6021 47.9676 25.0141V15.9958H47.9677Z" fill="white"/>
<path d="M4.00798 27.8023V32.0281C4.00798 32.5458 4.42773 32.9656 4.94548 32.9656C5.46323 32.9656 5.88298 32.5458 5.88298 32.0281V29.9596H9.0181V34.0322C9.0181 34.55 9.43785 34.9697 9.9556 34.9697C10.4734 34.9697 10.8931 34.55 10.8931 34.0322V29.9596H14.0282V32.0281C14.0282 32.5458 14.448 32.9656 14.9657 32.9656C15.4835 32.9656 15.9032 32.5458 15.9032 32.0281V27.8023C17.0671 27.4101 17.9074 26.3083 17.9074 25.014V15.9957C17.9074 14.3737 16.5877 13.0542 14.9657 13.0542H13.7857C13.3639 11.331 11.8071 10.0482 9.95573 10.0482C8.10435 10.0482 6.5476 11.331 6.12573 13.0542H4.94573C3.32373 13.0542 2.00423 14.3738 2.00423 15.9957V25.014C2.00398 26.3083 2.84435 27.4101 4.00798 27.8023ZM9.9556 11.9232C11.0962 11.9232 12.0241 12.8511 12.0241 13.9917C12.0241 15.1323 11.0962 16.0603 9.9556 16.0603C8.81498 16.0603 7.8871 15.1323 7.8871 13.9917C7.8871 12.8511 8.81498 11.9232 9.9556 11.9232ZM3.87898 15.9958C3.87898 15.4077 4.35748 14.9293 4.94548 14.9293H6.12548C6.54735 16.6526 8.1041 17.9355 9.95548 17.9355C11.8069 17.9355 13.3636 16.6526 13.7855 14.9293H14.9655C15.5536 14.9293 16.0321 15.4078 16.0321 15.9958V25.0141C16.0321 25.6022 15.5536 26.0806 14.9655 26.0806C14.4477 26.0806 14.028 26.5003 14.028 27.0181V28.0846H5.88298V27.0181C5.88298 26.5003 5.46323 26.0806 4.94548 26.0806C4.35735 26.0806 3.87898 25.6021 3.87898 25.0141V15.9958Z" fill="white"/>
<path d="M63.0625 52.133H54.9819V47.9959H59.0545C59.5723 47.9959 59.992 47.5761 59.992 47.0584C59.992 46.5406 59.5723 46.1209 59.0545 46.1209H58.99V35.7858C58.99 35.268 58.5703 34.8483 58.0525 34.8483C57.5348 34.8483 57.115 35.268 57.115 35.7858V46.1209H54.982V38.0403C54.982 37.5225 54.5622 37.1028 54.0445 37.1028C53.5267 37.1028 53.107 37.5225 53.107 38.0403V42.1129H50.974V35.7858C50.974 35.268 50.5542 34.8483 50.0365 34.8483C49.5187 34.8483 49.099 35.268 49.099 35.7858V42.1129H49.0345C48.5168 42.1129 48.097 42.5326 48.097 43.0504C48.097 43.5681 48.5168 43.9879 49.0345 43.9879H53.1071V52.1331H32.9375V47.996H37.0101C37.5279 47.996 37.9476 47.5763 37.9476 47.0585C37.9476 46.5408 37.5279 46.121 37.0101 46.121H36.9456V35.7859C36.9456 35.2681 36.5259 34.8484 36.0081 34.8484C35.4904 34.8484 35.0706 35.2681 35.0706 35.7859V46.121H32.9375V38.0404C32.9375 37.5226 32.5177 37.1029 32 37.1029C31.4823 37.1029 31.0625 37.5226 31.0625 38.0404V42.113H28.9295V35.7859C28.9295 35.2681 28.5098 34.8484 27.992 34.8484C27.4743 34.8484 27.0545 35.2681 27.0545 35.7859V42.113H26.99C26.4722 42.113 26.0525 42.5328 26.0525 43.0505C26.0525 43.5683 26.4722 43.988 26.99 43.988H31.0625V52.1333H10.8931V47.9961H14.9657C15.4835 47.9961 15.9032 47.5764 15.9032 47.0586C15.9032 46.5409 15.4835 46.1211 14.9657 46.1211H14.9012V35.786C14.9012 35.2683 14.4815 34.8485 13.9637 34.8485C13.446 34.8485 13.0262 35.2683 13.0262 35.786V46.1211H10.8931V38.0405C10.8931 37.5228 10.4734 37.103 9.95562 37.103C9.43787 37.103 9.01812 37.5228 9.01812 38.0405V42.1131H6.88513V35.786C6.88513 35.2683 6.46537 34.8485 5.94763 34.8485C5.42988 34.8485 5.01013 35.2683 5.01013 35.786V42.1131H4.94562C4.42787 42.1131 4.00812 42.5329 4.00812 43.0506C4.00812 43.5684 4.42787 43.9881 4.94562 43.9881H9.01825V52.1334H0.9375C0.41975 52.1334 0 52.5531 0 53.0709C0 53.5886 0.41975 54.0084 0.9375 54.0084H63.0625C63.5802 54.0084 64 53.5886 64 53.0709C64 52.5531 63.5802 52.133 63.0625 52.133Z" fill="white"/>
</g>
<defs>
<clipPath id="clip0">
<rect width="64" height="64" fill="white" transform="translate(0 0.0280762)"/>
</clipPath>
</defs>
</svg>
