<svg width="360" height="30" viewBox="0 0 360 30" fill="none" xmlns="http://www.w3.org/2000/svg">
<g clip-path="url(#clip0)">
<path d="M135.783 20.8382C139.034 20.8382 141.67 18.2022 141.67 14.9505C141.67 11.6989 139.034 9.06287 135.783 9.06287C132.531 9.06287 129.895 11.6989 129.895 14.9505C129.895 18.2022 132.531 20.8382 135.783 20.8382Z" stroke="white" stroke-width="2" stroke-linecap="round" stroke-linejoin="round"/>
<path d="M135.783 1.99756V4.35263" stroke="white" stroke-width="2" stroke-linecap="round" stroke-linejoin="round"/>
<path d="M135.783 25.5483V27.9034" stroke="white" stroke-width="2" stroke-linecap="round" stroke-linejoin="round"/>
<path d="M126.621 5.78931L128.293 7.46141" stroke="white" stroke-width="2" stroke-linecap="round" stroke-linejoin="round"/>
<path d="M143.272 22.4396L144.944 24.1117" stroke="white" stroke-width="2" stroke-linecap="round" stroke-linejoin="round"/>
<path d="M122.83 14.9506H125.185" stroke="white" stroke-width="2" stroke-linecap="round" stroke-linejoin="round"/>
<path d="M146.38 14.9506H148.735" stroke="white" stroke-width="2" stroke-linecap="round" stroke-linejoin="round"/>
<path d="M126.621 24.1117L128.293 22.4396" stroke="white" stroke-width="2" stroke-linecap="round" stroke-linejoin="round"/>
<path d="M143.272 7.46141L144.944 5.78931" stroke="white" stroke-width="2" stroke-linecap="round" stroke-linejoin="round"/>
</g>
<g clip-path="url(#clip1)">
<path d="M361.87 20.8382C365.121 20.8382 367.757 18.2022 367.757 14.9505C367.757 11.6989 365.121 9.06287 361.87 9.06287C358.618 9.06287 355.982 11.6989 355.982 14.9505C355.982 18.2022 358.618 20.8382 361.87 20.8382Z" stroke="white" stroke-width="2" stroke-linecap="round" stroke-linejoin="round"/>
<path d="M352.708 5.78931L354.38 7.46141" stroke="white" stroke-width="2" stroke-linecap="round" stroke-linejoin="round"/>
<path d="M348.917 14.9506H351.272" stroke="white" stroke-width="2" stroke-linecap="round" stroke-linejoin="round"/>
<path d="M352.708 24.1117L354.38 22.4396" stroke="white" stroke-width="2" stroke-linecap="round" stroke-linejoin="round"/>
</g>
<path d="M192.775 14.9505H188.065L184.533 25.5483L177.467 4.35266L173.935 14.9505H169.225" stroke="white" stroke-width="2" stroke-linecap="round" stroke-linejoin="round"/>
<g clip-path="url(#clip2)">
<path d="M10.7283 12.5954C10.7283 20.8381 0.130434 27.9034 0.130434 27.9034C0.130434 27.9034 -10.4674 20.8381 -10.4674 12.5954C-10.4674 9.78467 -9.35084 7.08907 -7.36336 5.10159C-5.37588 3.11411 -2.68028 1.99756 0.130434 1.99756C2.94115 1.99756 5.63675 3.11411 7.62423 5.10159C9.61171 7.08907 10.7283 9.78467 10.7283 12.5954Z" stroke="white" stroke-width="2" stroke-linecap="round" stroke-linejoin="round"/>
<path d="M0.130433 16.1281C2.08144 16.1281 3.66304 14.5465 3.66304 12.5955C3.66304 10.6445 2.08144 9.06287 0.130433 9.06287C-1.82057 9.06287 -3.40218 10.6445 -3.40218 12.5955C-3.40218 14.5465 -1.82057 16.1281 0.130433 16.1281Z" stroke="white" stroke-width="2" stroke-linecap="round" stroke-linejoin="round"/>
</g>
<g clip-path="url(#clip3)">
<path d="M236.815 12.5954C236.815 20.8381 226.217 27.9034 226.217 27.9034C226.217 27.9034 215.62 20.8381 215.62 12.5954C215.62 9.78467 216.736 7.08907 218.724 5.10159C220.711 3.11411 223.407 1.99756 226.217 1.99756C229.028 1.99756 231.724 3.11411 233.711 5.10159C235.699 7.08907 236.815 9.78467 236.815 12.5954Z" stroke="white" stroke-width="2" stroke-linecap="round" stroke-linejoin="round"/>
<path d="M226.217 16.1281C228.168 16.1281 229.75 14.5465 229.75 12.5955C229.75 10.6445 228.168 9.06287 226.217 9.06287C224.266 9.06287 222.685 10.6445 222.685 12.5955C222.685 14.5465 224.266 16.1281 226.217 16.1281Z" stroke="white" stroke-width="2" stroke-linecap="round" stroke-linejoin="round"/>
</g>
<g clip-path="url(#clip4)">
<path d="M32.395 7.88532V26.7259L40.6377 22.0158L50.058 26.7259L58.3008 22.0158V3.17517L50.058 7.88532L40.6377 3.17517L32.395 7.88532Z" stroke="white" stroke-width="2" stroke-linecap="round" stroke-linejoin="round"/>
<path d="M40.6377 3.17517V22.0157" stroke="white" stroke-width="2" stroke-linecap="round" stroke-linejoin="round"/>
<path d="M50.058 7.88525V26.7258" stroke="white" stroke-width="2" stroke-linecap="round" stroke-linejoin="round"/>
</g>
<g clip-path="url(#clip5)">
<path d="M258.482 7.88532V26.7259L266.725 22.0158L276.145 26.7259L284.388 22.0158V3.17517L276.145 7.88532L266.725 3.17517L258.482 7.88532Z" stroke="white" stroke-width="2" stroke-linecap="round" stroke-linejoin="round"/>
<path d="M266.725 3.17517V22.0157" stroke="white" stroke-width="2" stroke-linecap="round" stroke-linejoin="round"/>
<path d="M276.145 7.88525V26.7258" stroke="white" stroke-width="2" stroke-linecap="round" stroke-linejoin="round"/>
</g>
<path d="M79.9674 13.773L102.341 3.17517L91.7428 25.5484L89.3877 16.1281L79.9674 13.773Z" stroke="white" stroke-width="2" stroke-linecap="round" stroke-linejoin="round"/>
<path d="M306.054 13.773L328.428 3.17517L317.83 25.5484L315.475 16.1281L306.054 13.773Z" stroke="white" stroke-width="2" stroke-linecap="round" stroke-linejoin="round"/>
<defs>
<clipPath id="clip0">
<rect width="28.2609" height="28.2609" fill="white" transform="translate(121.652 0.820068)"/>
</clipPath>
<clipPath id="clip1">
<rect width="12" height="28" fill="white" transform="translate(348 1)"/>
</clipPath>
<clipPath id="clip2">
<rect width="14" height="28" fill="white" transform="translate(0 1)"/>
</clipPath>
<clipPath id="clip3">
<rect width="28.2609" height="28.2609" fill="white" transform="translate(212.087 0.820068)"/>
</clipPath>
<clipPath id="clip4">
<rect width="28.2609" height="28.2609" fill="white" transform="translate(31.2174 0.820068)"/>
</clipPath>
<clipPath id="clip5">
<rect width="28.2609" height="28.2609" fill="white" transform="translate(257.304 0.820068)"/>
</clipPath>
</defs>
</svg>
