<svg width="701" height="30" viewBox="0 0 701 30" fill="none" xmlns="http://www.w3.org/2000/svg">
<g clip-path="url(#clip0)">
<path d="M158.653 21.1799C162.094 21.1799 164.883 18.3909 164.883 14.9505C164.883 11.5101 162.094 8.72113 158.653 8.72113C155.213 8.72113 152.424 11.5101 152.424 14.9505C152.424 18.3909 155.213 21.1799 158.653 21.1799Z" stroke="white" stroke-width="2" stroke-linecap="round" stroke-linejoin="round"/>
<path d="M158.653 1.24591V3.73766" stroke="white" stroke-width="2" stroke-linecap="round" stroke-linejoin="round"/>
<path d="M158.653 26.1633V28.6551" stroke="white" stroke-width="2" stroke-linecap="round" stroke-linejoin="round"/>
<path d="M148.961 5.25757L150.73 7.02671" stroke="white" stroke-width="2" stroke-linecap="round" stroke-linejoin="round"/>
<path d="M166.577 22.8743L168.346 24.6434" stroke="white" stroke-width="2" stroke-linecap="round" stroke-linejoin="round"/>
<path d="M144.949 14.9505H147.441" stroke="white" stroke-width="2" stroke-linecap="round" stroke-linejoin="round"/>
<path d="M169.866 14.9505H172.358" stroke="white" stroke-width="2" stroke-linecap="round" stroke-linejoin="round"/>
<path d="M148.961 24.6434L150.73 22.8743" stroke="white" stroke-width="2" stroke-linecap="round" stroke-linejoin="round"/>
<path d="M166.577 7.02671L168.346 5.25757" stroke="white" stroke-width="2" stroke-linecap="round" stroke-linejoin="round"/>
</g>
<g clip-path="url(#clip1)">
<path d="M398.158 21.1799C401.599 21.1799 404.388 18.3909 404.388 14.9505C404.388 11.5101 401.599 8.72113 398.158 8.72113C394.718 8.72113 391.929 11.5101 391.929 14.9505C391.929 18.3909 394.718 21.1799 398.158 21.1799Z" stroke="white" stroke-width="2" stroke-linecap="round" stroke-linejoin="round"/>
<path d="M398.158 1.24591V3.73766" stroke="white" stroke-width="2" stroke-linecap="round" stroke-linejoin="round"/>
<path d="M398.158 26.1633V28.6551" stroke="white" stroke-width="2" stroke-linecap="round" stroke-linejoin="round"/>
<path d="M388.466 5.25757L390.235 7.02671" stroke="white" stroke-width="2" stroke-linecap="round" stroke-linejoin="round"/>
<path d="M406.082 22.8743L407.851 24.6434" stroke="white" stroke-width="2" stroke-linecap="round" stroke-linejoin="round"/>
<path d="M384.454 14.9505H386.946" stroke="white" stroke-width="2" stroke-linecap="round" stroke-linejoin="round"/>
<path d="M409.371 14.9505H411.863" stroke="white" stroke-width="2" stroke-linecap="round" stroke-linejoin="round"/>
<path d="M388.466 24.6434L390.235 22.8743" stroke="white" stroke-width="2" stroke-linecap="round" stroke-linejoin="round"/>
<path d="M406.082 7.02671L407.851 5.25757" stroke="white" stroke-width="2" stroke-linecap="round" stroke-linejoin="round"/>
</g>
<g clip-path="url(#clip2)">
<path d="M637.663 21.1799C641.104 21.1799 643.893 18.3909 643.893 14.9505C643.893 11.5101 641.104 8.72113 637.663 8.72113C634.223 8.72113 631.434 11.5101 631.434 14.9505C631.434 18.3909 634.223 21.1799 637.663 21.1799Z" stroke="white" stroke-width="2" stroke-linecap="round" stroke-linejoin="round"/>
<path d="M637.663 1.24591V3.73766" stroke="white" stroke-width="2" stroke-linecap="round" stroke-linejoin="round"/>
<path d="M637.663 26.1633V28.6551" stroke="white" stroke-width="2" stroke-linecap="round" stroke-linejoin="round"/>
<path d="M627.971 5.25757L629.74 7.02671" stroke="white" stroke-width="2" stroke-linecap="round" stroke-linejoin="round"/>
<path d="M645.587 22.8743L647.356 24.6434" stroke="white" stroke-width="2" stroke-linecap="round" stroke-linejoin="round"/>
<path d="M623.959 14.9505H626.451" stroke="white" stroke-width="2" stroke-linecap="round" stroke-linejoin="round"/>
<path d="M648.876 14.9505H651.368" stroke="white" stroke-width="2" stroke-linecap="round" stroke-linejoin="round"/>
<path d="M627.971 24.6434L629.74 22.8743" stroke="white" stroke-width="2" stroke-linecap="round" stroke-linejoin="round"/>
<path d="M645.587 7.02671L647.356 5.25757" stroke="white" stroke-width="2" stroke-linecap="round" stroke-linejoin="round"/>
</g>
<path d="M219.013 14.9505H214.03L210.292 26.1634L202.817 3.73761L199.079 14.9505H194.096" stroke="white" stroke-width="2" stroke-linecap="round" stroke-linejoin="round"/>
<path d="M458.518 14.9505H453.535L449.797 26.1634L442.322 3.73761L438.584 14.9505H433.601" stroke="white" stroke-width="2" stroke-linecap="round" stroke-linejoin="round"/>
<path d="M698.023 14.9505H693.04L689.302 26.1634L681.827 3.73761L678.089 14.9505H673.106" stroke="white" stroke-width="2" stroke-linecap="round" stroke-linejoin="round"/>
<g clip-path="url(#clip3)">
<path d="M26.1634 12.4588C26.1634 21.1799 14.9505 28.6552 14.9505 28.6552C14.9505 28.6552 3.73767 21.1799 3.73767 12.4588C3.73767 9.48494 4.91902 6.63291 7.02184 4.53008C9.12467 2.42726 11.9767 1.24591 14.9505 1.24591C17.9244 1.24591 20.7764 2.42726 22.8792 4.53008C24.9821 6.63291 26.1634 9.48494 26.1634 12.4588Z" stroke="white" stroke-width="2" stroke-linecap="round" stroke-linejoin="round"/>
<path d="M14.9505 16.1964C17.0147 16.1964 18.6881 14.523 18.6881 12.4588C18.6881 10.3945 17.0147 8.72113 14.9505 8.72113C12.8863 8.72113 11.2129 10.3945 11.2129 12.4588C11.2129 14.523 12.8863 16.1964 14.9505 16.1964Z" stroke="white" stroke-width="2" stroke-linecap="round" stroke-linejoin="round"/>
</g>
<g clip-path="url(#clip4)">
<path d="M265.668 12.4588C265.668 21.1799 254.456 28.6552 254.456 28.6552C254.456 28.6552 243.243 21.1799 243.243 12.4588C243.243 9.48494 244.424 6.63291 246.527 4.53008C248.63 2.42726 251.482 1.24591 254.456 1.24591C257.429 1.24591 260.281 2.42726 262.384 4.53008C264.487 6.63291 265.668 9.48494 265.668 12.4588Z" stroke="white" stroke-width="2" stroke-linecap="round" stroke-linejoin="round"/>
<path d="M254.456 16.1964C256.52 16.1964 258.193 14.523 258.193 12.4588C258.193 10.3945 256.52 8.72113 254.456 8.72113C252.391 8.72113 250.718 10.3945 250.718 12.4588C250.718 14.523 252.391 16.1964 254.456 16.1964Z" stroke="white" stroke-width="2" stroke-linecap="round" stroke-linejoin="round"/>
</g>
<g clip-path="url(#clip5)">
<path d="M505.173 12.4588C505.173 21.1799 493.961 28.6552 493.961 28.6552C493.961 28.6552 482.748 21.1799 482.748 12.4588C482.748 9.48494 483.929 6.63291 486.032 4.53008C488.135 2.42726 490.987 1.24591 493.961 1.24591C496.934 1.24591 499.786 2.42726 501.889 4.53008C503.992 6.63291 505.173 9.48494 505.173 12.4588Z" stroke="white" stroke-width="2" stroke-linecap="round" stroke-linejoin="round"/>
<path d="M493.961 16.1964C496.025 16.1964 497.698 14.523 497.698 12.4588C497.698 10.3945 496.025 8.72113 493.961 8.72113C491.896 8.72113 490.223 10.3945 490.223 12.4588C490.223 14.523 491.896 16.1964 493.961 16.1964Z" stroke="white" stroke-width="2" stroke-linecap="round" stroke-linejoin="round"/>
</g>
<g clip-path="url(#clip6)">
<path d="M49.1469 7.47526V27.4093L57.868 22.4258L67.835 27.4093L76.5561 22.4258V2.49176L67.835 7.47526L57.868 2.49176L49.1469 7.47526Z" stroke="white" stroke-width="2" stroke-linecap="round" stroke-linejoin="round"/>
<path d="M57.868 2.49176V22.4258" stroke="white" stroke-width="2" stroke-linecap="round" stroke-linejoin="round"/>
<path d="M67.835 7.47522V27.4092" stroke="white" stroke-width="2" stroke-linecap="round" stroke-linejoin="round"/>
</g>
<g clip-path="url(#clip7)">
<path d="M288.652 7.47526V27.4093L297.373 22.4258L307.34 27.4093L316.061 22.4258V2.49176L307.34 7.47526L297.373 2.49176L288.652 7.47526Z" stroke="white" stroke-width="2" stroke-linecap="round" stroke-linejoin="round"/>
<path d="M297.373 2.49176V22.4258" stroke="white" stroke-width="2" stroke-linecap="round" stroke-linejoin="round"/>
<path d="M307.34 7.47522V27.4092" stroke="white" stroke-width="2" stroke-linecap="round" stroke-linejoin="round"/>
</g>
<g clip-path="url(#clip8)">
<path d="M528.157 7.47526V27.4093L536.878 22.4258L546.845 27.4093L555.566 22.4258V2.49176L546.845 7.47526L536.878 2.49176L528.157 7.47526Z" stroke="white" stroke-width="2" stroke-linecap="round" stroke-linejoin="round"/>
<path d="M536.878 2.49176V22.4258" stroke="white" stroke-width="2" stroke-linecap="round" stroke-linejoin="round"/>
<path d="M546.845 7.47522V27.4092" stroke="white" stroke-width="2" stroke-linecap="round" stroke-linejoin="round"/>
</g>
<path d="M99.5397 13.7046L123.211 2.49176L111.998 26.1634L109.507 16.1964L99.5397 13.7046Z" stroke="white" stroke-width="2" stroke-linecap="round" stroke-linejoin="round"/>
<path d="M339.045 13.7046L362.716 2.49176L351.503 26.1634L349.012 16.1964L339.045 13.7046Z" stroke="white" stroke-width="2" stroke-linecap="round" stroke-linejoin="round"/>
<path d="M578.55 13.7046L602.221 2.49176L591.008 26.1634L588.517 16.1964L578.55 13.7046Z" stroke="white" stroke-width="2" stroke-linecap="round" stroke-linejoin="round"/>
<defs>
<clipPath id="clip0">
<rect width="29.901" height="29.901" fill="white" transform="translate(143.703)"/>
</clipPath>
<clipPath id="clip1">
<rect width="29.901" height="29.901" fill="white" transform="translate(383.208)"/>
</clipPath>
<clipPath id="clip2">
<rect width="29.901" height="29.901" fill="white" transform="translate(622.713)"/>
</clipPath>
<clipPath id="clip3">
<rect width="29.901" height="29.901" fill="white"/>
</clipPath>
<clipPath id="clip4">
<rect width="29.901" height="29.901" fill="white" transform="translate(239.505)"/>
</clipPath>
<clipPath id="clip5">
<rect width="29.901" height="29.901" fill="white" transform="translate(479.01)"/>
</clipPath>
<clipPath id="clip6">
<rect width="29.901" height="29.901" fill="white" transform="translate(47.901)"/>
</clipPath>
<clipPath id="clip7">
<rect width="29.901" height="29.901" fill="white" transform="translate(287.406)"/>
</clipPath>
<clipPath id="clip8">
<rect width="29.901" height="29.901" fill="white" transform="translate(526.911)"/>
</clipPath>
</defs>
</svg>
