<svg width="32" height="32" viewBox="0 0 32 32" fill="none" xmlns="http://www.w3.org/2000/svg">
<path d="M21.5762 19.1382C21.3114 19.1382 21.0695 18.9641 20.9843 18.7138C20.9016 18.4706 20.9801 18.1951 21.178 18.0314C21.3733 17.8698 21.6546 17.8438 21.8767 17.9654C22.1026 18.0891 22.233 18.3497 22.1939 18.6048C22.1477 18.9066 21.8829 19.1382 21.5762 19.1382Z" fill="white"/>
<path d="M17.6014 8.06787H5.84125C5.49606 8.06787 5.21625 7.788 5.21625 7.44287C5.21625 7.09775 5.49606 6.81787 5.84125 6.81787H17.6014C17.9466 6.81787 18.2264 7.09775 18.2264 7.44287C18.2264 7.788 17.9466 8.06787 17.6014 8.06787Z" fill="white"/>
<path d="M17.6014 15.0843H5.84125C5.49606 15.0843 5.21625 14.8044 5.21625 14.4593C5.21625 14.1142 5.49606 13.8343 5.84125 13.8343H17.6014C17.9466 13.8343 18.2264 14.1142 18.2264 14.4593C18.2264 14.8044 17.9466 15.0843 17.6014 15.0843Z" fill="white"/>
<path d="M17.6014 19.0851H5.84125C5.49606 19.0851 5.21625 18.8052 5.21625 18.4601C5.21625 18.115 5.49606 17.8351 5.84125 17.8351H17.6014C17.9466 17.8351 18.2264 18.115 18.2264 18.4601C18.2264 18.8052 17.9466 19.0851 17.6014 19.0851Z" fill="white"/>
<path d="M13.7721 23.0861H5.84125C5.49606 23.0861 5.21625 22.8062 5.21625 22.4611C5.21625 22.1159 5.49606 21.8361 5.84125 21.8361H13.7721C14.1173 21.8361 14.3971 22.1159 14.3971 22.4611C14.3971 22.8062 14.1173 23.0861 13.7721 23.0861Z" fill="white"/>
<path d="M19.939 1.25075H18.3626V0.625C18.3626 0.279813 18.0827 0 17.7376 0C17.3925 0 17.1126 0.279813 17.1126 0.625V1.25075H14.3972V0.625C14.3972 0.279813 14.1174 0 13.7722 0C13.427 0 13.1472 0.279813 13.1472 0.625V1.25075H10.4317V0.625C10.4317 0.279813 10.1519 0 9.80674 0C9.46156 0 9.18174 0.279813 9.18174 0.625V1.25075H6.46631V0.625C6.46631 0.279813 6.18649 0 5.84131 0C5.49612 0 5.21631 0.279813 5.21631 0.625V1.25075H3.63993C2.39262 1.25075 1.37787 2.2655 1.37787 3.51281V29.7379C1.37787 30.9853 2.39262 32 3.63993 32H19.9389C21.1863 32 22.2011 30.9853 22.2011 29.7379V21.3269C22.2011 20.9818 21.9212 20.7019 21.5761 20.7019C21.2309 20.7019 20.9511 20.9818 20.9511 21.3269V29.7379C20.9511 30.2959 20.497 30.7499 19.9389 30.7499H3.63993C3.08187 30.7499 2.62787 30.2959 2.62787 29.7379V3.51281C2.62787 2.95475 3.08187 2.50075 3.63993 2.50075H5.21631V3.24931C5.21631 3.59444 5.49612 3.87431 5.84131 3.87431C6.18649 3.87431 6.46631 3.59444 6.46631 3.24931V2.50075H9.18174V3.24931C9.18174 3.59444 9.46156 3.87431 9.80674 3.87431C10.1519 3.87431 10.4317 3.59444 10.4317 3.24931V2.50075H13.1472V3.24931C13.1472 3.59444 13.427 3.87431 13.7722 3.87431C14.1174 3.87431 14.3972 3.59444 14.3972 3.24931V2.50075H17.1126V3.24931C17.1126 3.59444 17.3925 3.87431 17.7376 3.87431C18.0827 3.87431 18.3626 3.59444 18.3626 3.24931V2.50075H19.939C20.4971 2.50075 20.9511 2.95481 20.9511 3.51281V15.6761C20.9511 16.0212 21.231 16.3011 21.5761 16.3011C21.9213 16.3011 22.2011 16.0212 22.2011 15.6761V3.51281C22.2011 2.2655 21.1863 1.25075 19.939 1.25075Z" fill="white"/>
<path d="M30.6222 28.0845L30.6167 3.3612C30.6164 2.23238 29.6977 1.31376 28.5692 1.31338L26.7944 1.31213H26.7937C26.2466 1.31213 25.7322 1.5252 25.3453 1.91213C24.9582 2.2992 24.7451 2.81382 24.7453 3.3612L24.7507 28.0826V28.1158C24.7507 28.2453 24.7911 28.3716 24.8659 28.4773L27.1774 31.7366C27.2946 31.9018 27.4846 32 27.6872 32C27.8897 32 28.0798 31.9018 28.197 31.7366L30.5069 28.4795C30.5819 28.3738 30.6221 28.2474 30.6221 28.1179V28.0845H30.6222ZM29.3676 6.41726L29.3681 8.47032H25.9967L25.9962 6.4157L27.6615 6.41645L29.3676 6.41726ZM25.9969 9.72032H29.3683L29.3718 26.4526L29.0901 26.1388C28.9674 26.0021 28.7927 25.9265 28.6073 25.9316C28.4238 25.9368 28.2517 26.0225 28.1371 26.1658L27.6863 26.729L27.2346 26.1648C27.1199 26.0215 26.9479 25.9358 26.7644 25.9306C26.7585 25.9305 26.7526 25.9304 26.7467 25.9304C26.5696 25.9304 26.4004 26.0056 26.2817 26.1378L26.0004 26.4511L25.9969 9.72032ZM26.2292 2.79595C26.38 2.6452 26.5805 2.56213 26.7935 2.56213H26.7937L28.5686 2.56338C29.0086 2.56351 29.3666 2.92157 29.3667 3.36157L29.3673 5.16732L27.705 5.16657L25.9959 5.16576L25.9954 3.36082C25.9953 3.14738 26.0784 2.94682 26.2292 2.79595ZM27.6872 30.2946L26.1613 28.143L26.7194 27.5213L27.1984 28.1197C27.3171 28.2678 27.4966 28.3541 27.6864 28.3541C27.8762 28.3541 28.0557 28.2678 28.1744 28.1196L28.6524 27.5223L29.2116 28.1451L27.6872 30.2946Z" fill="white"/>
</svg>
