<svg width="24" height="24" viewBox="0 0 24 24" fill="none" xmlns="http://www.w3.org/2000/svg">
<g clip-path="url(#clip0)">
<path d="M1.76 13.8004C1.6876 14.0035 1.79453 14.2261 2 14.3001C2.04234 14.3152 2.08697 14.3232 2.132 14.3237C2.31019 14.3334 2.47339 14.2259 2.532 14.0601C2.81279 13.2805 3.55926 12.757 4.4 12.7499C4.62092 12.7499 4.8 12.5737 4.8 12.3565C4.8 12.1392 4.62092 11.963 4.4 11.963C3.21302 11.9632 2.1551 12.6994 1.76 13.8004Z" fill="white"/>
<path d="M2.516 15.3742C2.46884 15.2414 2.35322 15.1434 2.21269 15.1172C2.07215 15.0909 1.92806 15.1404 1.83469 15.247C1.74131 15.3536 1.71284 15.5011 1.76 15.6339C2.1551 16.7349 3.21301 17.4711 4.4 17.4713C4.62091 17.4713 4.8 17.2951 4.8 17.0778C4.8 16.8605 4.62091 16.6844 4.4 16.6844C3.55337 16.6839 2.79877 16.1591 2.516 15.3742Z" fill="white"/>
<path d="M19.6 17.4712C20.4466 17.4717 21.2012 17.9965 21.484 18.7814C21.5404 18.9401 21.6931 19.046 21.864 19.045C21.9091 19.0445 21.9537 19.0365 21.996 19.0214C22.2031 18.949 22.312 18.7259 22.24 18.5217C21.8449 17.4208 20.787 16.6845 19.6 16.6843C19.3791 16.6843 19.2 16.8605 19.2 17.0778C19.2 17.2951 19.3791 17.4712 19.6 17.4712Z" fill="white"/>
<path d="M22 19.8555C21.8998 19.8202 21.7894 19.8257 21.6933 19.8708C21.5972 19.9158 21.5233 19.9967 21.488 20.0955C21.2047 20.8818 20.4481 21.4068 19.6 21.4056C19.3791 21.4056 19.2 21.5818 19.2 21.7991C19.2 22.0164 19.3791 22.1925 19.6 22.1925C20.787 22.1924 21.8449 21.4561 22.24 20.3552C22.3124 20.1521 22.2055 19.9294 22 19.8555Z" fill="white"/>
<path d="M23.2 2.91389H22V1.73356C22 1.29898 21.6418 0.946675 21.2 0.946675H17.2V0.553233C17.2 0.33594 17.0209 0.15979 16.8 0.15979C16.5791 0.15979 16.4 0.33594 16.4 0.553233V8.81553H14.4C13.7373 8.81553 13.2 9.34398 13.2 9.99586V10.3893H4.4C1.96995 10.3893 0 12.327 0 14.7172C0 17.1074 1.96995 19.045 4.4 19.045H19.6C19.8209 19.045 20 19.2212 20 19.4385C20 19.6558 19.8209 19.8319 19.6 19.8319H1.2C0.537258 19.8319 0 20.3604 0 21.0122V22.586C0 23.2379 0.537258 23.7663 1.2 23.7663H19.6C22.0301 23.7663 24 21.8287 24 19.4385C24 17.0483 22.0301 15.1106 19.6 15.1106H4.4C4.17909 15.1106 4 14.9345 4 14.7172C4 14.4999 4.17909 14.3237 4.4 14.3237H22.8C23.4627 14.3237 24 13.7953 24 13.1434V11.5696C24 10.9177 23.4627 10.3893 22.8 10.3893H20.4V9.99586C20.4 9.34398 19.8627 8.81553 19.2 8.81553H17.2V5.66799H18.4V6.84831C18.4 7.2829 18.7582 7.6352 19.2 7.6352H23.2C23.6418 7.6352 24 7.2829 24 6.84831V3.70077C24 3.26619 23.6418 2.91389 23.2 2.91389ZM23.2 11.5696V13.1434C23.2 13.3607 23.0209 13.5368 22.8 13.5368H4.4C3.73726 13.5368 3.2 14.0653 3.2 14.7172C3.2 15.369 3.73726 15.8975 4.4 15.8975H19.6C21.5882 15.8975 23.2 17.4828 23.2 19.4385C23.2 21.3941 21.5882 22.9795 19.6 22.9795H1.2C0.979086 22.9795 0.8 22.8033 0.8 22.586V21.0122C0.8 20.795 0.979086 20.6188 1.2 20.6188H19.6C20.2627 20.6188 20.8 20.0904 20.8 19.4385C20.8 18.7866 20.2627 18.2582 19.6 18.2582H4.4C2.41177 18.2582 0.8 16.6728 0.8 14.7172C0.8 12.7615 2.41177 11.1762 4.4 11.1762H22.8C23.0209 11.1762 23.2 11.3523 23.2 11.5696ZM19.6 9.99586V10.3893H14V9.99586C14 9.77856 14.1791 9.60241 14.4 9.60241H19.2C19.4209 9.60241 19.6 9.77856 19.6 9.99586ZM17.2 1.73356H21.2V4.8811H17.2V1.73356ZM20.352 5.66799L19.2 6.47454V5.66799H20.352ZM23.2 6.84831H20.044L21.832 5.59323C21.9278 5.51237 21.988 5.39815 22 5.27454V3.70077H23.2V6.84831Z" fill="white"/>
<path d="M6.00001 12.7499H9.20001C9.42092 12.7499 9.60001 12.5737 9.60001 12.3565C9.60001 12.1392 9.42092 11.963 9.20001 11.963H6.00001C5.77909 11.963 5.60001 12.1392 5.60001 12.3565C5.60001 12.5737 5.77909 12.7499 6.00001 12.7499Z" fill="white"/>
<path d="M10.8 12.7499H14C14.2209 12.7499 14.4 12.5737 14.4 12.3565C14.4 12.1392 14.2209 11.963 14 11.963H10.8C10.5791 11.963 10.4 12.1392 10.4 12.3565C10.4 12.5737 10.5791 12.7499 10.8 12.7499Z" fill="white"/>
<path d="M15.6 12.7499H18.8C19.0209 12.7499 19.2 12.5737 19.2 12.3565C19.2 12.1392 19.0209 11.963 18.8 11.963H15.6C15.3791 11.963 15.2 12.1392 15.2 12.3565C15.2 12.5737 15.3791 12.7499 15.6 12.7499Z" fill="white"/>
<path d="M20.4 12.7499H22C22.2209 12.7499 22.4 12.5737 22.4 12.3565C22.4 12.1392 22.2209 11.963 22 11.963H20.4C20.1791 11.963 20 12.1392 20 12.3565C20 12.5737 20.1791 12.7499 20.4 12.7499Z" fill="white"/>
<path d="M3.60001 21.4058H2.00001C1.77909 21.4058 1.60001 21.5819 1.60001 21.7992C1.60001 22.0165 1.77909 22.1926 2.00001 22.1926H3.60001C3.82092 22.1926 4.00001 22.0165 4.00001 21.7992C4.00001 21.5819 3.82092 21.4058 3.60001 21.4058Z" fill="white"/>
<path d="M8.39999 21.4058H5.19999C4.97907 21.4058 4.79999 21.5819 4.79999 21.7992C4.79999 22.0165 4.97907 22.1926 5.19999 22.1926H8.39999C8.6209 22.1926 8.79999 22.0165 8.79999 21.7992C8.79999 21.5819 8.6209 21.4058 8.39999 21.4058Z" fill="white"/>
<path d="M13.2 21.4058H10C9.77909 21.4058 9.60001 21.5819 9.60001 21.7992C9.60001 22.0165 9.77909 22.1926 10 22.1926H13.2C13.4209 22.1926 13.6 22.0165 13.6 21.7992C13.6 21.5819 13.4209 21.4058 13.2 21.4058Z" fill="white"/>
<path d="M18 21.4058H14.8C14.5791 21.4058 14.4 21.5819 14.4 21.7992C14.4 22.0165 14.5791 22.1926 14.8 22.1926H18C18.2209 22.1926 18.4 22.0165 18.4 21.7992C18.4 21.5819 18.2209 21.4058 18 21.4058Z" fill="white"/>
<path d="M6.00001 17.4712H8.80001C9.02092 17.4712 9.20001 17.2951 9.20001 17.0778C9.20001 16.8605 9.02092 16.6843 8.80001 16.6843H6.00001C5.77909 16.6843 5.60001 16.8605 5.60001 17.0778C5.60001 17.2951 5.77909 17.4712 6.00001 17.4712Z" fill="white"/>
<path d="M10.4 17.4712H13.6C13.8209 17.4712 14 17.2951 14 17.0778C14 16.8605 13.8209 16.6843 13.6 16.6843H10.4C10.1791 16.6843 10 16.8605 10 17.0778C10 17.2951 10.1791 17.4712 10.4 17.4712Z" fill="white"/>
<path d="M15.2 17.4712H18C18.2209 17.4712 18.4 17.2951 18.4 17.0778C18.4 16.8605 18.2209 16.6843 18 16.6843H15.2C14.9791 16.6843 14.8 16.8605 14.8 17.0778C14.8 17.2951 14.9791 17.4712 15.2 17.4712Z" fill="white"/>
</g>
<defs>
<clipPath id="clip0">
<rect width="24" height="23.6066" fill="white" transform="translate(0 0.15979)"/>
</clipPath>
</defs>
</svg>
