<svg width="32" height="32" viewBox="0 0 32 32" fill="none" xmlns="http://www.w3.org/2000/svg">
<g clip-path="url(#clip0)">
<path d="M24.0086 8.30466L22.1785 0.549613C22.1189 0.297114 21.8657 0.140927 21.6135 0.200364C21.3611 0.259926 21.2047 0.512926 21.2642 0.765363L23.0944 8.52041C23.1455 8.7366 23.3383 8.88229 23.5511 8.88229C23.5868 8.88229 23.623 8.87822 23.6593 8.86966C23.9118 8.8101 24.0682 8.5571 24.0086 8.30466Z" fill="white"/>
<path d="M29.42 31.2346L24.3653 9.81562C24.3056 9.56312 24.0522 9.40687 23.8003 9.46637C23.5478 9.52594 23.3914 9.77894 23.451 10.0314L28.5057 31.4503C28.5568 31.6665 28.7496 31.8122 28.9624 31.8122C28.9981 31.8122 29.0344 31.8081 29.0707 31.7996C29.3232 31.74 29.4796 31.4871 29.42 31.2346Z" fill="white"/>
<path d="M3.86685 27.8267C3.61479 27.7673 3.36141 27.9235 3.30185 28.176L2.58004 31.2346C2.52048 31.487 2.67685 31.74 2.92929 31.7996C2.96554 31.8081 3.00179 31.8122 3.03754 31.8122C3.25035 31.8122 3.44329 31.6664 3.49422 31.4503L4.21604 28.3917C4.27566 28.1393 4.11929 27.8863 3.86685 27.8267Z" fill="white"/>
<path d="M10.3865 0.200281C10.1345 0.140719 9.88112 0.297031 9.8215 0.549531L3.76882 26.197C3.70926 26.4495 3.86563 26.7025 4.11807 26.762C4.15432 26.7706 4.19057 26.7747 4.22632 26.7747C4.43919 26.7747 4.63207 26.6289 4.68307 26.4128L10.7357 0.76528C10.7953 0.512843 10.6389 0.259844 10.3865 0.200281Z" fill="white"/>
<path d="M31.9821 31.2147L23.3064 0.529625C23.2358 0.279938 22.976 0.134938 22.7267 0.205438C22.477 0.276001 22.3319 0.535563 22.4025 0.785187L31.0782 31.4703C31.1367 31.6771 31.325 31.8123 31.5299 31.8123C31.5722 31.8123 31.6152 31.8065 31.658 31.7944C31.9075 31.7239 32.0527 31.4643 31.9821 31.2147Z" fill="white"/>
<path d="M9.27326 0.20556C9.02382 0.135061 8.76407 0.28006 8.69357 0.529747L0.0177776 31.2148C-0.0527848 31.4644 0.0922774 31.724 0.341902 31.7946C0.384652 31.8066 0.427652 31.8124 0.469964 31.8124C0.674776 31.8124 0.863151 31.6773 0.921651 31.4704L9.59745 0.785372C9.66795 0.535622 9.52282 0.276123 9.27326 0.20556Z" fill="white"/>
<path d="M17.216 0.642881C17.208 0.383631 16.9932 0.179319 16.7321 0.187882C16.4728 0.195819 16.269 0.412506 16.2771 0.671756L16.3323 2.46894H15.6678L15.7231 0.671756C15.7311 0.412506 15.5274 0.195819 15.2681 0.187882C15.012 0.179944 14.7922 0.383631 14.7842 0.642881L14.7141 2.92425C14.7102 3.05125 14.7578 3.17444 14.8463 3.26569C14.9348 3.35688 15.0565 3.40838 15.1836 3.40838H16.8168C16.9438 3.40838 17.0655 3.35688 17.154 3.26569C17.2425 3.17444 17.2901 3.05125 17.2862 2.92425L17.216 0.642881Z" fill="white"/>
<path d="M17.3224 4.10411C17.3146 3.85049 17.1067 3.64893 16.8529 3.64893H15.1471C14.8933 3.64893 14.6855 3.85049 14.6777 4.10411L14.5543 8.10948C14.5504 8.23648 14.5981 8.35967 14.6865 8.45092C14.775 8.5421 14.8967 8.59367 15.0237 8.59367H16.9763C17.1034 8.59367 17.225 8.54217 17.3135 8.45092C17.402 8.35967 17.4497 8.23648 17.4457 8.10948L17.3224 4.10411ZM15.5081 7.65429L15.6025 4.5883H16.3975L16.4919 7.65429H15.5081Z" fill="white"/>
<path d="M17.492 9.61486C17.4843 9.36123 17.2764 9.15967 17.0226 9.15967H14.9774C14.7236 9.15967 14.5157 9.36123 14.5079 9.61486L14.367 14.1863C14.3631 14.3133 14.4108 14.4365 14.4992 14.5277C14.5877 14.6189 14.7094 14.6705 14.8365 14.6705H17.1635C17.2906 14.6705 17.4123 14.619 17.5008 14.5277C17.5892 14.4365 17.6369 14.3133 17.633 14.1863L17.492 9.61486ZM15.3208 13.7311L15.4328 10.099H16.5672L16.6792 13.7311H15.3208Z" fill="white"/>
<path d="M17.6981 16.3111C17.6904 16.0574 17.4825 15.8558 17.2287 15.8558H14.7714C14.5175 15.8558 14.3097 16.0574 14.3019 16.311L14.1304 21.8888C14.1264 22.0158 14.1741 22.139 14.2626 22.2303C14.351 22.3215 14.4727 22.373 14.5997 22.373H17.4002C17.5273 22.373 17.649 22.3215 17.7374 22.2303C17.8259 22.1391 17.8736 22.0159 17.8697 21.8889L17.6981 16.3111ZM15.084 21.4336L15.2268 16.7952H16.7732L16.9158 21.4336H15.084Z" fill="white"/>
<path d="M17.9524 24.5766C17.9446 24.323 17.7367 24.1215 17.4829 24.1215H14.5171C14.2633 24.1215 14.0555 24.323 14.0477 24.5766L13.8398 31.328C13.8318 31.5873 14.0355 31.8039 14.2948 31.8119C14.552 31.8198 14.7707 31.6162 14.7786 31.3569L14.9726 25.0608H17.0274L17.2214 31.3569C17.2292 31.6113 17.4378 31.8121 17.6906 31.8121C17.6954 31.8121 17.7003 31.8121 17.7052 31.8119C17.9645 31.8039 18.1683 31.5873 18.1602 31.328L17.9524 24.5766Z" fill="white"/>
</g>
<defs>
<clipPath id="clip0">
<rect width="32" height="32" fill="white"/>
</clipPath>
</defs>
</svg>
