<svg width="32" height="32" viewBox="0 0 32 32" fill="none" xmlns="http://www.w3.org/2000/svg">
<g clip-path="url(#clip0)">
<path d="M28.4156 22.939C25.897 22.939 23.4109 22.5499 21.0166 21.7828C21.1194 21.2195 20.8662 20.6265 20.3427 20.3243L19.1168 19.6165C18.7944 19.4303 18.4187 19.3809 18.0591 19.4772C17.6995 19.5736 17.3989 19.8042 17.2127 20.1267L17.1826 20.1789L16.8306 19.9902L16.8431 19.9685C17.2273 19.303 16.9984 18.4488 16.3329 18.0645L15.107 17.3567C14.7845 17.1705 14.4089 17.121 14.0492 17.2174C13.7064 17.3093 13.4184 17.5243 13.2309 17.8235L12.3174 17.2623C12.0774 17.115 11.7685 17.1463 11.5629 17.3387C9.37286 19.3902 6.1283 19.8089 3.48924 18.3807L2.95811 18.0933C2.78511 17.9997 2.57817 17.993 2.39949 18.0752C2.2208 18.1573 2.09124 18.3188 2.04967 18.5111L0.220612 26.9821C0.0616123 27.7186 0.106487 28.4848 0.350362 29.1977C0.923737 30.8738 2.49924 32 4.27074 32H24.132C26.7651 32 29.2922 30.8836 31.0654 28.9368C31.668 28.2753 31.9999 27.4181 31.9999 26.5232C31.9999 24.5468 30.392 22.939 28.4156 22.939ZM18.2952 20.7517C18.3199 20.709 18.3563 20.6917 18.3825 20.6847C18.4088 20.6777 18.449 20.6744 18.4917 20.699L19.7176 21.4068C19.7864 21.4465 19.81 21.5347 19.7703 21.6034L17.7147 25.1638C17.675 25.2325 17.5868 25.256 17.518 25.2165L16.2921 24.5087C16.2495 24.484 16.2322 24.4476 16.2251 24.4214C16.2181 24.3951 16.2148 24.3549 16.2394 24.3122L18.2952 20.7517ZM14.2853 18.492C14.3099 18.4493 14.3464 18.432 14.3727 18.425C14.3833 18.4221 14.3962 18.4198 14.4107 18.4198C14.4319 18.4198 14.4564 18.4247 14.4818 18.4393L15.7077 19.1471C15.7764 19.1868 15.8 19.275 15.7604 19.3437L13.7047 22.9042C13.6801 22.9468 13.6436 22.9642 13.6174 22.9712C13.5911 22.9782 13.5509 22.9815 13.5082 22.9568L12.2823 22.2491C12.2396 22.2244 12.2223 22.1879 12.2152 22.1617C12.2082 22.1355 12.205 22.0952 12.2296 22.0525L14.2853 18.492ZM4.27074 30.75C3.03367 30.75 1.93349 29.9636 1.53311 28.7932C1.3628 28.2953 1.33142 27.7603 1.44249 27.2459L1.58036 26.6073H2.35236C5.16917 26.6073 7.67455 28.2409 8.8278 30.75H4.27074V30.75ZM30.1412 28.0952C28.6044 29.7824 26.4142 30.7501 24.132 30.7501H10.1814C8.94674 27.5071 5.85499 25.3574 2.35242 25.3574H1.8503L3.09649 19.586C3.67261 19.8776 4.27149 20.0951 4.88067 20.2422C4.88586 20.2492 4.89049 20.2563 4.89599 20.263L9.70167 26.1538C10.9737 27.7131 12.8574 28.6074 14.8697 28.6074H17.0358C17.381 28.6074 17.6608 28.3275 17.6608 27.9824C17.6608 27.6373 17.381 27.3574 17.0358 27.3574H14.8697C13.2345 27.3574 11.7038 26.6307 10.6702 25.3637L6.67792 20.47C8.60442 20.4995 10.5192 19.8513 12.057 18.5696L12.6033 18.9053L11.1471 21.4275C10.9609 21.7499 10.9115 22.1256 11.0078 22.4853C11.1042 22.8449 11.3348 23.1455 11.6573 23.3317L12.8832 24.0394C13.0979 24.1634 13.3363 24.2268 13.5779 24.2268C13.699 24.2268 13.8208 24.2108 13.9409 24.1787C14.3005 24.0823 14.6011 23.8517 14.7873 23.5292L16.2052 21.0734L16.5572 21.2622L15.157 23.6873C14.9709 24.0097 14.9214 24.3853 15.0178 24.745C15.1142 25.1047 15.3448 25.4052 15.6672 25.5913L16.8932 26.2992C17.1121 26.4255 17.3514 26.4856 17.5877 26.4856C18.0698 26.4856 18.5393 26.2356 18.7972 25.789L20.4565 22.915C21.7687 23.346 23.1077 23.6682 24.4645 23.8808C23.8851 24.269 23.3735 24.7636 22.962 25.3488C22.4948 26.0134 21.86 26.5493 21.1264 26.8985C20.8147 27.047 20.6824 27.4199 20.8307 27.7315C20.9378 27.9565 21.1619 28.088 21.3955 28.088C21.4855 28.088 21.577 28.0684 21.6637 28.0272C22.5913 27.5855 23.3938 26.908 23.9845 26.0678C24.7654 24.9573 26.006 24.2622 27.3495 24.167C27.7042 24.1817 28.0596 24.1891 28.4157 24.1891C29.7028 24.1891 30.75 25.2363 30.75 26.5234C30.7499 27.1061 30.5337 27.6643 30.1412 28.0952Z" fill="white"/>
<path d="M19.1765 27.3566C18.8226 27.3629 18.549 27.6411 18.5536 27.99C18.5583 28.337 18.836 28.6067 19.187 28.6067C19.189 28.6067 19.1911 28.6067 19.1931 28.6067C19.547 28.6035 19.8231 28.3277 19.8215 27.9788C19.82 27.6261 19.5341 27.3487 19.1765 27.3566Z" fill="white"/>
<path d="M31.7801 9.81199L29.9511 1.34092C29.9095 1.14867 29.78 0.987175 29.6013 0.904987C29.4226 0.822862 29.2157 0.82955 29.0427 0.923175L28.5115 1.21061C25.8724 2.63874 22.6279 2.21999 20.4378 0.168674C20.2323 -0.023888 19.9233 -0.0550755 19.6835 0.0922995L18.77 0.653487C18.5825 0.354299 18.2945 0.139362 17.9517 0.0474245C17.592 -0.0488255 17.2164 0.00054948 16.894 0.186737L15.668 0.894487C15.3456 1.08067 15.115 1.38124 15.0186 1.74086C14.9222 2.10049 14.9717 2.47617 15.1579 2.79855L15.1703 2.82011L14.8183 3.00886L14.7881 2.95661C14.6019 2.63417 14.3013 2.40355 13.9417 2.30717C13.5821 2.21086 13.2064 2.2603 12.884 2.44642L11.6581 3.15418C11.1346 3.45649 10.8815 4.04949 10.9842 4.6128C8.59004 5.3798 6.10391 5.76892 3.58529 5.76892C1.60885 5.76892 0.000976562 7.37686 0.000976562 9.35324C0.000976562 10.2481 0.332851 11.1053 0.935476 11.7669C2.70866 13.7136 5.23579 14.8301 7.86891 14.8301H9.14679C9.49198 14.8301 9.77179 14.5502 9.77179 14.2051C9.77179 13.8599 9.49198 13.5801 9.14679 13.5801H7.86891C5.58673 13.5801 3.39641 12.6124 1.8596 10.9252C1.4671 10.4943 1.25098 9.93605 1.25098 9.35324C1.25098 8.06611 2.29816 7.01893 3.58529 7.01893C3.94116 7.01893 4.29641 7.01155 4.65091 6.9968C5.99466 7.09186 7.23554 7.78693 8.01641 8.89755C9.13454 10.4879 10.9627 11.4373 12.9067 11.4373H17.131C19.1434 11.4373 21.0271 10.543 22.2991 8.98368L27.1048 3.09292C27.1103 3.08617 27.1149 3.07899 27.1201 3.07205C27.7293 2.92492 28.3282 2.70749 28.9043 2.41586L30.1505 8.1873H29.6483C26.1458 8.1873 23.0541 10.3371 21.8195 13.58H15.596C15.2508 13.58 14.971 13.8598 14.971 14.205C14.971 14.5502 15.2508 14.83 15.596 14.83H27.73C29.5015 14.83 31.077 13.7038 31.6504 12.0277C31.8943 11.3147 31.9392 10.5486 31.7801 9.81199ZM16.226 2.06436C16.233 2.03811 16.2504 2.00161 16.293 1.97699L17.519 1.26924C17.5443 1.25461 17.5688 1.2498 17.5901 1.2498C17.6045 1.2498 17.6175 1.25199 17.6281 1.25486C17.6544 1.26186 17.6909 1.27924 17.7155 1.32192L19.7711 4.88236C19.7957 4.92505 19.7925 4.9653 19.7855 4.99155C19.7785 5.0178 19.7611 5.05424 19.7184 5.07893L18.4926 5.78661C18.45 5.81124 18.4097 5.80811 18.3834 5.80099C18.3572 5.79399 18.3207 5.77661 18.296 5.73392L16.2404 2.17349C16.2158 2.13086 16.219 2.09061 16.226 2.06436ZM12.2832 4.23667L13.5092 3.52892C13.5345 3.5143 13.559 3.50949 13.5803 3.50949C13.5947 3.50949 13.6077 3.51174 13.6184 3.51461C13.6446 3.52161 13.6811 3.53899 13.7057 3.58161L15.7614 7.14205C15.786 7.18474 15.7828 7.22499 15.7757 7.25124C15.7687 7.27749 15.7514 7.31399 15.7087 7.33861L14.4828 8.04636C14.414 8.08593 14.3259 8.06243 14.2862 7.99368L12.2306 4.4333C12.1909 4.36455 12.2145 4.27636 12.2832 4.23667ZM21.3305 8.19355C20.2968 9.46061 18.7661 10.1873 17.131 10.1873H12.9066C11.369 10.1873 9.92316 9.43636 9.03885 8.17861C8.62741 7.59343 8.11573 7.0988 7.53635 6.71055C8.89316 6.49793 10.2322 6.1758 11.5444 5.74474L13.2037 8.61868C13.4615 9.0653 13.931 9.3153 14.4132 9.3153C14.6495 9.3153 14.8888 9.25524 15.1077 9.12886L16.3336 8.42111C16.9992 8.0368 17.2281 7.18261 16.8438 6.51699L15.4435 4.09193L15.7957 3.90317L17.2135 6.35893C17.3997 6.68143 17.7002 6.91205 18.0598 7.00843C18.1799 7.04061 18.3018 7.05655 18.4228 7.05655C18.6644 7.05655 18.9028 6.99318 19.1175 6.86918L20.3434 6.16143C20.6659 5.97524 20.8965 5.67468 20.9929 5.31505C21.0893 4.95543 21.0398 4.5798 20.8536 4.25736L19.3973 1.73511L19.9437 1.39949C21.4816 2.68111 23.3963 3.32942 25.3228 3.2998L21.3305 8.19355ZM30.4678 11.6231C30.0674 12.7936 28.9672 13.58 27.7302 13.58H23.173C24.3263 11.0709 26.8317 9.43724 29.6485 9.43724H30.4205L30.5583 10.0759C30.6694 10.5902 30.6381 11.1252 30.4678 11.6231Z" fill="white"/>
<path d="M13.1714 13.7633C13.0545 13.6471 12.8939 13.5802 12.7295 13.5802C12.5651 13.5802 12.4039 13.6471 12.2876 13.7633C12.1707 13.8802 12.1045 14.0408 12.1045 14.2052C12.1045 14.3702 12.1707 14.5315 12.2876 14.6477C12.4039 14.764 12.5645 14.8302 12.7295 14.8302C12.8939 14.8302 13.0551 14.764 13.1714 14.6477C13.2876 14.5308 13.3545 14.3702 13.3545 14.2052C13.3545 14.0408 13.2876 13.8802 13.1714 13.7633Z" fill="white"/>
</g>
<defs>
<clipPath id="clip0">
<rect width="32" height="32" fill="white"/>
</clipPath>
</defs>
</svg>
