<svg width="24" height="24" viewBox="0 0 24 24" fill="none" xmlns="http://www.w3.org/2000/svg">
<g clip-path="url(#clip0)">
<path d="M11.1094 0.192072C9.57656 0.307339 7.95469 0.759182 6.55313 1.46C5.57344 1.94412 4.22813 2.86625 4.21406 3.05529C4.2 3.22588 4.22813 3.32271 4.3125 3.4057C4.47656 3.56707 4.64063 3.51174 5.18438 3.11062C6.8625 1.86574 8.74688 1.14187 10.8938 0.920555C13.5234 0.643915 16.2469 1.33551 18.4172 2.82476C23.0766 6.01994 24.6281 12.0645 22.0547 17.0071C21.4828 18.1137 20.9109 18.8791 19.9688 19.8012C18.5953 21.1521 17.1469 22.0189 15.3281 22.5768C12.2016 23.5358 8.69531 23.0701 5.93438 21.3365C4.94063 20.7095 3.68438 19.5707 3.01406 18.69C1.68281 16.938 0.965625 15.1075 0.745313 12.8944C0.679688 12.2489 0.7125 11.1332 0.820313 10.4001C1.09688 8.47742 1.96406 6.50867 3.16406 5.0517C3.65625 4.45693 3.70313 4.38777 3.70313 4.25867C3.70313 4.10652 3.51094 3.94053 3.3375 3.94053C3.19219 3.94053 2.92031 4.21717 2.42813 4.85345C0.2625 7.67517 -0.50625 11.3545 0.35625 14.8079C0.759375 16.4354 1.66875 18.1967 2.75625 19.4784C3.24844 20.0594 4.18594 20.94 4.74844 21.3596C6.375 22.5676 8.20781 23.3237 10.2422 23.6373C11.1141 23.771 12.7688 23.7802 13.6172 23.6603C15.6891 23.3606 17.5828 22.5906 19.2656 21.355C19.8375 20.9308 21.1172 19.6721 21.5484 19.1096C24.3 15.481 24.7688 10.8104 22.7812 6.80836C22.1531 5.53582 21.5344 4.69668 20.4609 3.63623C19.4203 2.61267 18.5531 1.99484 17.3016 1.38162C15.4266 0.4641 13.1906 0.0306988 11.1094 0.192072Z" fill="white"/>
<path d="M10.6219 1.84268C6.90938 2.35907 3.82969 4.7059 2.39062 8.11317C2.14219 8.70333 1.91719 9.47792 1.77656 10.211C1.67813 10.7182 1.66406 10.9257 1.66406 11.9631C1.66406 13.2587 1.72031 13.6921 2.02031 14.7525C2.70469 17.1593 4.33594 19.2802 6.54375 20.6357C7.85156 21.438 9.35625 21.9405 10.9641 22.1111C11.6578 22.1849 13.0969 22.1388 13.7578 22.0143C15.4125 21.7146 16.8469 21.1106 18.1219 20.1885C18.5625 19.8703 18.6047 19.8196 18.6094 19.6306C18.6094 19.4738 18.4359 19.294 18.2812 19.294C18.2344 19.294 18.0656 19.3862 17.9016 19.5015C16.3688 20.5619 15.2859 21.0276 13.5703 21.355C13.2422 21.4149 12.8953 21.4334 12.0234 21.4334C11.0438 21.438 10.8234 21.4241 10.3359 21.3319C8.35781 20.9585 6.75938 20.1654 5.33438 18.8376C3.40781 17.0394 2.34375 14.6004 2.34375 11.9631C2.34375 6.68848 6.6375 2.46512 12 2.46512C15.6938 2.46512 18.9891 4.47075 20.6531 7.7351C21.2719 8.94309 21.5906 10.1972 21.6422 11.6219C21.7031 13.3601 21.3375 14.9323 20.5266 16.4262C20.2781 16.8872 19.8188 17.5788 19.5984 17.8278C19.3031 18.169 19.125 18.4318 19.125 18.5379C19.125 18.69 19.3219 18.8791 19.4813 18.8791C19.8281 18.8791 20.9766 17.2561 21.5156 16.002C22.1391 14.5496 22.3969 13.1849 22.3453 11.6265C22.2891 10.0819 21.9797 8.83704 21.3047 7.46768C20.0625 4.95026 17.7234 2.99534 14.9859 2.18848C14.0109 1.90262 13.3547 1.8104 12.1641 1.79196C11.4188 1.78274 10.9453 1.79657 10.6219 1.84268Z" fill="white"/>
<path d="M11.2031 3.94518C9.96561 4.07428 8.55936 4.56301 7.52811 5.23155C5.99061 6.22285 4.76717 7.77203 4.21874 9.41803C3.24842 12.3458 4.05467 15.564 6.29061 17.708C7.86561 19.2203 9.79217 19.9949 12 19.9949C13.5656 19.9949 14.8969 19.6306 16.2422 18.8422C17.2594 18.2428 18.3797 17.1455 18.9984 16.1265C20.9109 13.0005 20.4609 8.98924 17.9109 6.41649C17.5125 6.01998 17.3578 5.96465 17.1656 6.16752C16.9875 6.35655 17.0297 6.48565 17.3953 6.86834C17.5828 7.06199 17.7234 7.22336 17.7141 7.22797C17.5172 7.37551 12.9234 9.93442 12.8625 9.93442C12.8109 9.92981 12.7172 9.90676 12.6469 9.87448L12.525 9.81916L13.814 7.55994C14.5219 6.31506 15.1125 5.29149 15.1219 5.28227C15.1266 5.27305 15.3375 5.37449 15.5812 5.50358C15.825 5.63268 16.0687 5.73873 16.125 5.73873C16.2609 5.73873 16.4531 5.53586 16.4531 5.38832C16.4531 5.2085 16.2469 5.04713 15.6469 4.75666C14.2172 4.06506 12.6984 3.78842 11.2031 3.94518ZM13.2422 4.70594C13.6828 4.77971 14.4375 4.98719 14.4375 5.02869C14.4375 5.04713 12.0656 9.23821 11.7469 9.78227C11.7422 9.78227 11.6625 9.80071 11.5687 9.81916L11.3906 9.85143V7.24641V4.63678L11.6156 4.61834C11.9719 4.58606 12.7828 4.63217 13.2422 4.70594ZM10.6875 7.46311V10.2018L10.5422 10.3263C10.4015 10.437 10.3922 10.4416 10.3359 10.3632C10.2422 10.2203 7.68749 5.97387 7.68749 5.95543C7.68749 5.92315 8.4328 5.48514 8.74217 5.33299C9.20624 5.10707 10.3453 4.7336 10.6078 4.72899C10.6828 4.72438 10.6875 4.88576 10.6875 7.46311ZM8.55467 8.75871C9.75467 10.7551 9.93749 11.0825 9.91405 11.2024C9.89999 11.2761 9.87186 11.3545 9.85311 11.3729C9.82967 11.396 5.35311 8.90164 5.25936 8.80481C5.22655 8.77715 5.55936 8.20543 5.87342 7.74897C6.18749 7.30174 7.07342 6.35655 7.12499 6.41649C7.14842 6.43494 7.78592 7.49078 8.55467 8.75871ZM18.7172 8.72182C18.8062 8.89242 18.9422 9.21055 19.0219 9.42725C19.1672 9.82377 19.3687 10.543 19.3406 10.5707C19.3312 10.5753 18.0703 10.5984 16.5422 10.6122C13.7625 10.6399 13.7578 10.6399 13.6687 10.543C13.6219 10.4923 13.5937 10.4232 13.5984 10.4001C13.6078 10.3724 14.6391 9.77305 15.8859 9.06301L18.1594 7.77203L18.3562 8.09016C18.4687 8.26537 18.6281 8.54662 18.7172 8.72182ZM7.42967 10.8427C9.7453 12.1614 9.77342 12.1752 9.81092 12.3504C9.83436 12.4426 9.84374 12.5348 9.82499 12.5487C9.79686 12.5763 4.58436 12.6547 4.55155 12.6224C4.53749 12.6132 4.5328 12.2905 4.5328 11.9032C4.53749 11.1747 4.61249 10.6168 4.79061 10.0036C4.92655 9.53791 4.96405 9.45953 5.02967 9.48719C5.0578 9.50102 6.14061 10.1096 7.42967 10.8427ZM12.6094 10.6076C13.1625 10.8612 13.5 11.3637 13.5 11.9447C13.5 12.3688 13.3969 12.6501 13.1391 12.9313C12.8391 13.2587 12.5344 13.4016 12.0891 13.4293C11.564 13.4616 11.3015 13.3601 10.9453 13.0051C10.6078 12.6685 10.5 12.4103 10.5 11.9401C10.5 11.5113 10.6687 11.147 11.0109 10.8473C11.3109 10.5799 11.55 10.4969 12 10.4923C12.2812 10.4877 12.4031 10.5108 12.6094 10.6076ZM19.4672 11.6726C19.5141 12.3827 19.3922 13.3371 19.1578 14.084C19.0828 14.3192 19.0266 14.4252 18.9797 14.416C18.9469 14.4068 17.8594 13.7982 16.5656 13.0651C14.3766 11.8202 14.2125 11.7187 14.1844 11.585C14.1703 11.5067 14.1562 11.4144 14.1562 11.3822C14.1562 11.3315 14.4656 11.3176 15.9047 11.3038C16.8609 11.2992 18.0516 11.29 18.5437 11.2807L19.4391 11.2715L19.4672 11.6726ZM16.4391 13.7889C17.6719 14.4898 18.6984 15.0799 18.7219 15.0984C18.7406 15.1168 18.6797 15.2782 18.5812 15.4534C18.2578 16.0297 17.8594 16.5645 17.3766 17.0625L16.8984 17.5558L15.4781 15.2044C14.7 13.9134 14.0625 12.8299 14.0625 12.8023C14.0625 12.7377 14.1469 12.5164 14.175 12.5164C14.1844 12.5164 15.2062 13.0881 16.4391 13.7889ZM10.2984 13.3555C10.3594 13.4109 10.4062 13.4754 10.4062 13.5031C10.4062 13.5446 6.11249 16.0113 5.90155 16.0896C5.75624 16.145 5.1703 15.0845 4.9078 14.2915C4.74374 13.7935 4.64061 13.3786 4.66874 13.3463C4.6828 13.3325 5.66717 13.314 6.8578 13.2956C8.04842 13.2818 9.28592 13.2679 9.60467 13.2633C10.1484 13.2541 10.1953 13.2633 10.2984 13.3555ZM14.9766 15.7208C15.7172 16.9518 16.3172 17.9662 16.3078 17.9754C16.2984 17.9846 16.1062 18.1045 15.8812 18.2428C15.2531 18.6301 14.1703 19.0543 13.4812 19.1788L13.3125 19.2111V16.4769V13.7428L13.439 13.6137C13.5094 13.5446 13.5797 13.4846 13.5937 13.4846C13.6125 13.4846 14.2312 14.4898 14.9766 15.7208ZM11.1 14.7433C10.8937 15.103 10.3125 16.1219 9.80624 17.0118C9.30467 17.897 8.8828 18.6347 8.87811 18.644C8.85467 18.6716 8.13749 18.2659 7.72499 17.9892C7.4953 17.8417 7.07342 17.4913 6.78749 17.2146C6.36092 16.8135 6.27186 16.7029 6.32811 16.6706C6.36561 16.6429 7.45311 16.0251 8.74217 15.292L11.0859 13.9595L11.2781 14.0241L11.475 14.0886L11.1 14.7433ZM12.6094 16.6844V19.2802L12.2672 19.3079C11.6578 19.3586 10.6265 19.2341 9.89061 19.0174C9.61405 18.939 9.56249 18.9068 9.58592 18.8422C9.59999 18.8007 10.2094 17.7218 10.9359 16.4493C11.9109 14.7387 12.2812 14.1301 12.3516 14.1163C12.6328 14.061 12.6094 13.8258 12.6094 16.6844Z" fill="white"/>
<path d="M11.5547 10.9672C11.3391 11.0502 11.2594 11.1285 11.0297 11.5343C10.8234 11.9031 10.8328 12.0645 11.1094 12.5163C11.3578 12.9313 11.475 12.9958 12 12.9958C12.525 12.9958 12.6422 12.9359 12.9 12.5025C13.1719 12.0507 13.1719 11.8708 12.9 11.419C12.7688 11.2023 12.6469 11.0594 12.5484 11.0087C12.3422 10.9072 11.7938 10.8842 11.5547 10.9672ZM12.3047 11.7879C12.3984 11.9585 12.3984 11.9631 12.3094 12.1244C12.225 12.2766 12.2063 12.2858 11.9953 12.2858C11.7891 12.2858 11.7609 12.272 11.6953 12.1475C11.6016 11.9723 11.6063 11.9262 11.7188 11.7418C11.8078 11.6034 11.8313 11.5896 12.0141 11.6034C12.1875 11.6173 12.2203 11.6357 12.3047 11.7879Z" fill="white"/>
</g>
<defs>
<clipPath id="clip0">
<rect width="24" height="23.6066" fill="white" transform="translate(0 0.15979)"/>
</clipPath>
</defs>
</svg>
